<?xml version="1.0" encoding="utf-8" ?>
<svg baseProfile="full" height="600px" version="1.1" width="600px" xmlns="http://www.w3.org/2000/svg" xmlns:ev="http://www.w3.org/2001/xml-events" xmlns:xlink="http://www.w3.org/1999/xlink"><defs><pattern height="15" id="id1" patternUnits="userSpaceOnUse" width="15"><rect fill="white" height="15" stroke="gray" width="15" x="0" y="0" /></pattern><pattern height="15" id="id2" patternUnits="userSpaceOnUse" width="15"><rect fill="white" height="15" stroke="gray" width="15" x="0" y="0" /></pattern><pattern height="15" id="id3" patternUnits="userSpaceOnUse" width="15"><rect fill="white" height="15" stroke="gray" width="15" x="0" y="0" /></pattern><pattern height="15" id="id4" patternUnits="userSpaceOnUse" width="15"><rect fill="white" height="15" stroke="gray" width="15" x="0" y="0" /></pattern><pattern height="15" id="id5" patternUnits="userSpaceOnUse" width="15"><rect fill="white" height="15" stroke="gray" width="15" x="0" y="0" /></pattern><pattern height="15" id="id6" patternUnits="userSpaceOnUse" width="15"><rect fill="white" height="15" stroke="gray" width="15" x="0" y="0" /></pattern><pattern height="15" id="id7" patternUnits="userSpaceOnUse" width="15"><rect fill="white" height="15" stroke="gray" width="15" x="0" y="0" /></pattern><pattern height="15" id="id8" patternUnits="userSpaceOnUse" width="15"><rect fill="white" height="15" stroke="gray" width="15" x="0" y="0" /></pattern><pattern height="15" id="id9" patternUnits="userSpaceOnUse" width="15"><rect fill="white" height="15" stroke="gray" width="15" x="0" y="0" /></pattern><pattern height="15" id="id10" patternUnits="userSpaceOnUse" width="15"><rect fill="white" height="15" stroke="gray" width="15" x="0" y="0" /></pattern><pattern height="15" id="id11" patternUnits="userSpaceOnUse" width="15"><rect fill="white" height="15" stroke="gray" width="15" x="0" y="0" /></pattern><pattern height="15" id="id12" patternUnits="userSpaceOnUse" width="15"><rect fill="white" height="15" stroke="gray" width="15" x="0" y="0" /></pattern><pattern height="15" id="id13" patternUnits="userSpaceOnUse" width="15"><rect fill="white" height="15" stroke="gray" width="15" x="0" y="0" /></pattern><pattern height="15" id="id14" patternUnits="userSpaceOnUse" width="15"><rect fill="white" height="15" stroke="gray" width="15" x="0" y="0" /></pattern><pattern height="15" id="id15" patternUnits="userSpaceOnUse" width="15"><rect fill="white" height="15" stroke="gray" width="15" x="0" y="0" /></pattern></defs><rect fill="black" height="600" stroke="black" stroke-width="2" width="600" x="0" y="0" /><g><rect fill="url(#id1) none" height="210" stroke="black" stroke-width="1" width="90" x="60" y="30" /></g><g><rect fill="url(#id2) none" height="150" stroke="black" stroke-width="1" width="90" x="180" y="105" /></g><g><rect fill="url(#id3) none" height="195" stroke="black" stroke-width="1" width="75" x="345" y="75" /></g><g><rect fill="url(#id4) none" height="180" stroke="black" stroke-width="1" width="60" x="480" y="60" /></g><g><rect fill="url(#id5) none" height="90" stroke="black" stroke-width="1" width="180" x="15" y="375" /></g><g><rect fill="url(#id6) none" height="60" stroke="black" stroke-width="1" width="90" x="360" y="330" /></g><g><rect fill="url(#id7) none" height="60" stroke="black" stroke-width="1" width="225" x="225" y="480" /></g><g><rect fill="url(#id8) none" height="240" stroke="black" stroke-width="1" width="60" x="525" y="315" /></g><g><rect fill="url(#id9) none" height="285" width="15" x="105" y="135" /></g><g><rect fill="url(#id10) none" height="15" width="300" x="105" y="180" /></g><g><rect fill="url(#id10) none" height="45" width="15" x="105" y="135" /></g><g><rect fill="url(#id11) none" height="15" width="135" x="105" y="180" /></g><g><rect fill="url(#id11) none" height="45" width="15" x="105" y="135" /></g><g><rect fill="url(#id12) none" height="15" width="120" x="390" y="150" /></g><g><rect fill="url(#id12) none" height="30" width="15" x="390" y="150" /></g><g><rect fill="url(#id13) none" height="15" width="465" x="105" y="435" /></g><g><rect fill="url(#id13) none" height="15" width="15" x="105" y="420" /></g><g><rect fill="url(#id14) none" height="15" width="300" x="105" y="360" /></g><g><rect fill="url(#id14) none" height="60" width="15" x="105" y="360" /></g><g><rect fill="url(#id15) none" height="15" width="90" x="330" y="510" /></g><g><rect fill="url(#id15) none" height="150" width="15" x="405" y="360" /></g><rect fill="blue" height="15" width="15" x="570" y="525" /><rect fill="red" height="15" width="15" x="120" y="30" /><text alignment-baseline="middle" fill="black" font-size="22.5" text-anchor="middle" x="105.0" y="135.0">1</text><text alignment-baseline="middle" fill="black" font-size="22.5" text-anchor="middle" x="225.0" y="180.0">2</text><text alignment-baseline="middle" fill="black" font-size="22.5" text-anchor="middle" x="382.5" y="172.5">3</text><text alignment-baseline="middle" fill="black" font-size="22.5" text-anchor="middle" x="510.0" y="150.0">4</text><text alignment-baseline="middle" fill="black" font-size="22.5" text-anchor="middle" x="105.0" y="420.0">5</text><text alignment-baseline="middle" fill="black" font-size="22.5" text-anchor="middle" x="405.0" y="360.0">6</text><text alignment-baseline="middle" fill="black" font-size="22.5" text-anchor="middle" x="337.5" y="510.0">7</text><text alignment-baseline="middle" fill="black" font-size="22.5" text-anchor="middle" x="555.0" y="435.0">8</text></svg>