<?xml version="1.0" encoding="utf-8" ?>
<svg baseProfile="full" height="500px" version="1.1" width="500px" xmlns="http://www.w3.org/2000/svg" xmlns:ev="http://www.w3.org/2001/xml-events" xmlns:xlink="http://www.w3.org/1999/xlink"><defs><pattern height="10" id="id43" patternUnits="userSpaceOnUse" width="10"><rect fill="white" height="10" stroke="gray" width="10" x="0" y="0" /></pattern><pattern height="10" id="id44" patternUnits="userSpaceOnUse" width="10"><rect fill="white" height="10" stroke="gray" width="10" x="0" y="0" /></pattern><pattern height="10" id="id45" patternUnits="userSpaceOnUse" width="10"><rect fill="white" height="10" stroke="gray" width="10" x="0" y="0" /></pattern><pattern height="10" id="id46" patternUnits="userSpaceOnUse" width="10"><rect fill="white" height="10" stroke="gray" width="10" x="0" y="0" /></pattern><pattern height="10" id="id47" patternUnits="userSpaceOnUse" width="10"><rect fill="white" height="10" stroke="gray" width="10" x="0" y="0" /></pattern><pattern height="10" id="id48" patternUnits="userSpaceOnUse" width="10"><rect fill="white" height="10" stroke="gray" width="10" x="0" y="0" /></pattern><pattern height="10" id="id49" patternUnits="userSpaceOnUse" width="10"><rect fill="white" height="10" stroke="gray" width="10" x="0" y="0" /></pattern><pattern height="10" id="id50" patternUnits="userSpaceOnUse" width="10"><rect fill="white" height="10" stroke="gray" width="10" x="0" y="0" /></pattern><pattern height="10" id="id51" patternUnits="userSpaceOnUse" width="10"><rect fill="white" height="10" stroke="gray" width="10" x="0" y="0" /></pattern><pattern height="10" id="id52" patternUnits="userSpaceOnUse" width="10"><rect fill="white" height="10" stroke="gray" width="10" x="0" y="0" /></pattern><pattern height="10" id="id53" patternUnits="userSpaceOnUse" width="10"><rect fill="white" height="10" stroke="gray" width="10" x="0" y="0" /></pattern><pattern height="10" id="id54" patternUnits="userSpaceOnUse" width="10"><rect fill="white" height="10" stroke="gray" width="10" x="0" y="0" /></pattern><pattern height="10" id="id55" patternUnits="userSpaceOnUse" width="10"><rect fill="white" height="10" stroke="gray" width="10" x="0" y="0" /></pattern><pattern height="10" id="id56" patternUnits="userSpaceOnUse" width="10"><rect fill="white" height="10" stroke="gray" width="10" x="0" y="0" /></pattern><pattern height="10" id="id57" patternUnits="userSpaceOnUse" width="10"><rect fill="white" height="10" stroke="gray" width="10" x="0" y="0" /></pattern><pattern height="10" id="id58" patternUnits="userSpaceOnUse" width="10"><rect fill="white" height="10" stroke="gray" width="10" x="0" y="0" /></pattern><pattern height="10" id="id59" patternUnits="userSpaceOnUse" width="10"><rect fill="white" height="10" stroke="gray" width="10" x="0" y="0" /></pattern><pattern height="10" id="id60" patternUnits="userSpaceOnUse" width="10"><rect fill="white" height="10" stroke="gray" width="10" x="0" y="0" /></pattern><pattern height="10" id="id61" patternUnits="userSpaceOnUse" width="10"><rect fill="white" height="10" stroke="gray" width="10" x="0" y="0" /></pattern><pattern height="10" id="id62" patternUnits="userSpaceOnUse" width="10"><rect fill="white" height="10" stroke="gray" width="10" x="0" y="0" /></pattern><pattern height="10" id="id63" patternUnits="userSpaceOnUse" width="10"><rect fill="white" height="10" stroke="gray" width="10" x="0" y="0" /></pattern></defs><rect fill="black" height="500" stroke="black" stroke-width="2" width="500" x="0" y="0" /><g><rect fill="url(#id43) none" height="120" stroke="black" stroke-width="1" width="80" x="30" y="130" /></g><g><rect fill="url(#id44) none" height="180" stroke="black" stroke-width="1" width="70" x="180" y="50" /></g><g><rect fill="url(#id45) none" height="50" stroke="black" stroke-width="1" width="140" x="340" y="50" /></g><g><rect fill="url(#id46) none" height="50" stroke="black" stroke-width="1" width="170" x="280" y="140" /></g><g><rect fill="url(#id47) none" height="100" stroke="black" stroke-width="1" width="50" x="30" y="290" /></g><g><rect fill="url(#id48) none" height="50" stroke="black" stroke-width="1" width="50" x="110" y="340" /></g><g><rect fill="url(#id49) none" height="40" stroke="black" stroke-width="1" width="90" x="50" y="420" /></g><g><rect fill="url(#id50) none" height="200" stroke="black" stroke-width="1" width="110" x="200" y="280" /></g><g><rect fill="url(#id51) none" height="80" stroke="black" stroke-width="1" width="50" x="330" y="310" /></g><g><rect fill="url(#id52) none" height="40" stroke="black" stroke-width="1" width="40" x="420" y="310" /></g><g><rect fill="url(#id53) none" height="70" stroke="black" stroke-width="1" width="130" x="330" y="420" /></g><g><rect fill="url(#id54) none" height="10" width="20" x="60" y="340" /></g><g><rect fill="url(#id54) none" height="150" width="10" x="70" y="190" /></g><g><rect fill="url(#id55) none" height="10" width="340" x="70" y="80" /></g><g><rect fill="url(#id55) none" height="110" width="10" x="70" y="80" /></g><g><rect fill="url(#id56) none" height="10" width="150" x="70" y="140" /></g><g><rect fill="url(#id56) none" height="50" width="10" x="70" y="140" /></g><g><rect fill="url(#id57) none" height="10" width="50" x="360" y="80" /></g><g><rect fill="url(#id57) none" height="80" width="10" x="360" y="80" /></g><g><rect fill="url(#id58) none" height="10" width="210" x="60" y="380" /></g><g><rect fill="url(#id58) none" height="40" width="10" x="60" y="340" /></g><g><rect fill="url(#id59) none" height="10" width="40" x="60" y="340" /></g><g><rect fill="url(#id59) none" height="100" width="10" x="100" y="340" /></g><g><rect fill="url(#id60) none" height="10" width="90" x="60" y="360" /></g><g><rect fill="url(#id60) none" height="20" width="10" x="60" y="340" /></g><g><rect fill="url(#id61) none" height="10" width="110" x="260" y="380" /></g><g><rect fill="url(#id61) none" height="30" width="10" x="360" y="350" /></g><g><rect fill="url(#id62) none" height="10" width="40" x="360" y="350" /></g><g><rect fill="url(#id62) none" height="110" width="10" x="400" y="350" /></g><g><rect fill="url(#id63) none" height="10" width="80" x="360" y="330" /></g><g><rect fill="url(#id63) none" height="20" width="10" x="360" y="330" /></g><rect fill="white" height="20" stroke="blue" width="20" x="90" y="240" /><g transform="rotate(90,100.0,250.0)"><rect fill="white" height="20" stroke="black" width="2.5" x="90.0" y="240" /><rect fill="white" height="20" stroke="black" width="2.5" x="92.5" y="240" /><rect fill="white" height="20" stroke="black" width="2.5" x="95.0" y="240" /><rect fill="white" height="20" stroke="black" width="2.5" x="97.5" y="240" /><rect fill="white" height="20" stroke="black" width="2.5" x="100.0" y="240" /><rect fill="white" height="20" stroke="black" width="2.5" x="102.5" y="240" /><rect fill="white" height="20" stroke="black" width="2.5" x="105.0" y="240" /><rect fill="white" height="20" stroke="black" width="2.5" x="107.5" y="240" /></g><rect fill="red" height="10" width="10" x="30" y="300" /><text alignment-baseline="middle" fill="black" font-size="20" text-anchor="middle" x="70.0" y="190.0">1</text><text alignment-baseline="middle" fill="black" font-size="20" text-anchor="middle" x="215.0" y="140.0">2</text><text alignment-baseline="middle" fill="black" font-size="20" text-anchor="middle" x="410.0" y="75.0">3</text><text alignment-baseline="middle" fill="black" font-size="20" text-anchor="middle" x="365.0" y="165.0">4</text><text alignment-baseline="middle" fill="black" font-size="20" text-anchor="middle" x="55.0" y="340.0">5</text><text alignment-baseline="middle" fill="black" font-size="20" text-anchor="middle" x="135.0" y="365.0">6</text><text alignment-baseline="middle" fill="black" font-size="20" text-anchor="middle" x="95.0" y="440.0">7</text><text alignment-baseline="middle" fill="black" font-size="20" text-anchor="middle" x="255.0" y="380.0">8</text><text alignment-baseline="middle" fill="black" font-size="20" text-anchor="middle" x="355.0" y="350.0">9</text><text alignment-baseline="middle" fill="black" font-size="20" text-anchor="middle" x="440.0" y="330.0">10</text><text alignment-baseline="middle" fill="black" font-size="20" text-anchor="middle" x="395.0" y="455.0">11</text></svg>