<?xml version="1.0" encoding="utf-8" ?>
<svg baseProfile="full" height="750px" version="1.1" width="750px" xmlns="http://www.w3.org/2000/svg" xmlns:ev="http://www.w3.org/2001/xml-events" xmlns:xlink="http://www.w3.org/1999/xlink"><defs><pattern height="15" id="id791" patternUnits="userSpaceOnUse" width="15"><rect fill="white" height="15" stroke="gray" width="15" x="0" y="0" /></pattern><pattern height="15" id="id792" patternUnits="userSpaceOnUse" width="15"><rect fill="white" height="15" stroke="gray" width="15" x="0" y="0" /></pattern><pattern height="15" id="id793" patternUnits="userSpaceOnUse" width="15"><rect fill="white" height="15" stroke="gray" width="15" x="0" y="0" /></pattern><pattern height="15" id="id794" patternUnits="userSpaceOnUse" width="15"><rect fill="white" height="15" stroke="gray" width="15" x="0" y="0" /></pattern><pattern height="15" id="id795" patternUnits="userSpaceOnUse" width="15"><rect fill="white" height="15" stroke="gray" width="15" x="0" y="0" /></pattern><pattern height="15" id="id796" patternUnits="userSpaceOnUse" width="15"><rect fill="white" height="15" stroke="gray" width="15" x="0" y="0" /></pattern><pattern height="15" id="id797" patternUnits="userSpaceOnUse" width="15"><rect fill="white" height="15" stroke="gray" width="15" x="0" y="0" /></pattern><pattern height="15" id="id798" patternUnits="userSpaceOnUse" width="15"><rect fill="white" height="15" stroke="gray" width="15" x="0" y="0" /></pattern><pattern height="15" id="id799" patternUnits="userSpaceOnUse" width="15"><rect fill="white" height="15" stroke="gray" width="15" x="0" y="0" /></pattern><pattern height="15" id="id800" patternUnits="userSpaceOnUse" width="15"><rect fill="white" height="15" stroke="gray" width="15" x="0" y="0" /></pattern><pattern height="15" id="id801" patternUnits="userSpaceOnUse" width="15"><rect fill="white" height="15" stroke="gray" width="15" x="0" y="0" /></pattern><pattern height="15" id="id802" patternUnits="userSpaceOnUse" width="15"><rect fill="white" height="15" stroke="gray" width="15" x="0" y="0" /></pattern><pattern height="15" id="id803" patternUnits="userSpaceOnUse" width="15"><rect fill="white" height="15" stroke="gray" width="15" x="0" y="0" /></pattern><pattern height="15" id="id804" patternUnits="userSpaceOnUse" width="15"><rect fill="white" height="15" stroke="gray" width="15" x="0" y="0" /></pattern><pattern height="15" id="id805" patternUnits="userSpaceOnUse" width="15"><rect fill="white" height="15" stroke="gray" width="15" x="0" y="0" /></pattern><pattern height="15" id="id806" patternUnits="userSpaceOnUse" width="15"><rect fill="white" height="15" stroke="gray" width="15" x="0" y="0" /></pattern><pattern height="15" id="id807" patternUnits="userSpaceOnUse" width="15"><rect fill="white" height="15" stroke="gray" width="15" x="0" y="0" /></pattern><pattern height="15" id="id808" patternUnits="userSpaceOnUse" width="15"><rect fill="white" height="15" stroke="gray" width="15" x="0" y="0" /></pattern><pattern height="15" id="id809" patternUnits="userSpaceOnUse" width="15"><rect fill="white" height="15" stroke="gray" width="15" x="0" y="0" /></pattern><pattern height="15" id="id810" patternUnits="userSpaceOnUse" width="15"><rect fill="white" height="15" stroke="gray" width="15" x="0" y="0" /></pattern><pattern height="15" id="id811" patternUnits="userSpaceOnUse" width="15"><rect fill="white" height="15" stroke="gray" width="15" x="0" y="0" /></pattern><pattern height="15" id="id812" patternUnits="userSpaceOnUse" width="15"><rect fill="white" height="15" stroke="gray" width="15" x="0" y="0" /></pattern><pattern height="15" id="id813" patternUnits="userSpaceOnUse" width="15"><rect fill="white" height="15" stroke="gray" width="15" x="0" y="0" /></pattern><pattern height="15" id="id814" patternUnits="userSpaceOnUse" width="15"><rect fill="white" height="15" stroke="gray" width="15" x="0" y="0" /></pattern><pattern height="15" id="id815" patternUnits="userSpaceOnUse" width="15"><rect fill="white" height="15" stroke="gray" width="15" x="0" y="0" /></pattern><pattern height="15" id="id816" patternUnits="userSpaceOnUse" width="15"><rect fill="white" height="15" stroke="gray" width="15" x="0" y="0" /></pattern><pattern height="15" id="id817" patternUnits="userSpaceOnUse" width="15"><rect fill="white" height="15" stroke="gray" width="15" x="0" y="0" /></pattern></defs><rect fill="black" height="750" stroke="black" stroke-width="2" width="750" x="0" y="0" /><g><rect fill="url(#id791) none" height="105" stroke="black" stroke-width="1" width="105" x="165" y="60" /></g><g><rect fill="url(#id792) none" height="135" stroke="black" stroke-width="1" width="90" x="105" y="210" /></g><g><rect fill="url(#id793) none" height="180" stroke="black" stroke-width="1" width="90" x="345" y="165" /></g><g><rect fill="url(#id794) none" height="120" stroke="black" stroke-width="1" width="165" x="540" y="15" /></g><g><rect fill="url(#id795) none" height="105" stroke="black" stroke-width="1" width="225" x="510" y="225" /></g><g><rect fill="url(#id796) none" height="75" stroke="black" stroke-width="1" width="195" x="45" y="390" /></g><g><rect fill="url(#id797) none" height="165" stroke="black" stroke-width="1" width="90" x="30" y="555" /></g><g><rect fill="url(#id798) none" height="180" stroke="black" stroke-width="1" width="120" x="150" y="555" /></g><g><rect fill="url(#id799) none" height="75" stroke="black" stroke-width="1" width="180" x="300" y="390" /></g><g><rect fill="url(#id800) none" height="60" stroke="black" stroke-width="1" width="120" x="345" y="525" /></g><g><rect fill="url(#id801) none" height="90" stroke="black" stroke-width="1" width="105" x="315" y="645" /></g><g><rect fill="url(#id802) none" height="75" stroke="black" stroke-width="1" width="90" x="645" y="375" /></g><g><rect fill="url(#id803) none" height="75" stroke="black" stroke-width="1" width="165" x="570" y="495" /></g><g><rect fill="url(#id804) none" height="120" stroke="black" stroke-width="1" width="135" x="570" y="615" /></g><g><rect fill="url(#id805) none" height="15" width="60" x="150" y="120" /></g><g><rect fill="url(#id805) none" height="300" width="15" x="150" y="120" /></g><g><rect fill="url(#id806) none" height="15" width="420" x="210" y="75" /></g><g><rect fill="url(#id806) none" height="45" width="15" x="210" y="75" /></g><g><rect fill="url(#id807) none" height="15" width="195" x="210" y="255" /></g><g><rect fill="url(#id807) none" height="135" width="15" x="210" y="120" /></g><g><rect fill="url(#id808) none" height="15" width="75" x="150" y="270" /></g><g><rect fill="url(#id808) none" height="150" width="15" x="210" y="120" /></g><g><rect fill="url(#id809) none" height="195" width="15" x="630" y="75" /></g><g><rect fill="url(#id810) none" height="15" width="240" x="150" y="420" /></g><g><rect fill="url(#id811) none" height="15" width="90" x="75" y="630" /></g><g><rect fill="url(#id811) none" height="210" width="15" x="150" y="420" /></g><g><rect fill="url(#id812) none" height="15" width="135" x="75" y="630" /></g><g><rect fill="url(#id812) none" height="15" width="15" x="210" y="630" /></g><g><rect fill="url(#id813) none" height="15" width="300" x="390" y="420" /></g><g><rect fill="url(#id814) none" height="15" width="30" x="360" y="420" /></g><g><rect fill="url(#id814) none" height="270" width="15" x="360" y="420" /></g><g><rect fill="url(#id815) none" height="15" width="30" x="390" y="555" /></g><g><rect fill="url(#id815) none" height="135" width="15" x="390" y="420" /></g><g><rect fill="url(#id816) none" height="15" width="60" x="630" y="420" /></g><g><rect fill="url(#id816) none" height="255" width="15" x="630" y="420" /></g><g><rect fill="url(#id817) none" height="15" width="30" x="660" y="420" /></g><g><rect fill="url(#id817) none" height="120" width="15" x="660" y="420" /></g><rect fill="white" height="15" stroke="blue" width="15" x="30" y="585" /><rect fill="brown" height="15" stroke="black" width="5.0" x="30" y="585" /><rect fill="white" height="30" stroke="red" width="30" x="570" y="705" /><g><rect fill="white" height="14" stroke="black" width="3.75" x="570.0" y="713" /><rect fill="white" height="16" stroke="black" width="3.75" x="573.75" y="712" /><rect fill="white" height="18" stroke="black" width="3.75" x="577.5" y="711" /><rect fill="white" height="20" stroke="black" width="3.75" x="581.25" y="710" /><rect fill="white" height="22" stroke="black" width="3.75" x="585.0" y="709" /><rect fill="white" height="24" stroke="black" width="3.75" x="588.75" y="708" /><rect fill="white" height="26" stroke="black" width="3.75" x="592.5" y="707" /><rect fill="white" height="28" stroke="black" width="3.75" x="596.25" y="706" /></g><text alignment-baseline="middle" fill="black" font-size="20" text-anchor="middle" x="217.5" y="112.5">1</text><text alignment-baseline="middle" fill="black" font-size="20" text-anchor="middle" x="150.0" y="277.5">2</text><text alignment-baseline="middle" fill="black" font-size="20" text-anchor="middle" x="390.0" y="255.0">3</text><text alignment-baseline="middle" fill="black" font-size="20" text-anchor="middle" x="622.5" y="75.0">4</text><text alignment-baseline="middle" fill="black" font-size="20" text-anchor="middle" x="622.5" y="277.5">5</text><text alignment-baseline="middle" fill="black" font-size="20" text-anchor="middle" x="142.5" y="427.5">6</text><text alignment-baseline="middle" fill="black" font-size="20" text-anchor="middle" x="75.0" y="637.5">7</text><text alignment-baseline="middle" fill="black" font-size="20" text-anchor="middle" x="210.0" y="645.0">8</text><text alignment-baseline="middle" fill="black" font-size="20" text-anchor="middle" x="390.0" y="427.5">9</text><text alignment-baseline="middle" fill="black" font-size="20" text-anchor="middle" x="405.0" y="555.0">10</text><text alignment-baseline="middle" fill="black" font-size="20" text-anchor="middle" x="367.5" y="690.0">11</text><text alignment-baseline="middle" fill="black" font-size="20" text-anchor="middle" x="690.0" y="412.5">12</text><text alignment-baseline="middle" fill="black" font-size="20" text-anchor="middle" x="652.5" y="532.5">13</text><text alignment-baseline="middle" fill="black" font-size="20" text-anchor="middle" x="637.5" y="675.0">14</text></svg>