<?xml version="1.0" encoding="utf-8" ?>
<svg baseProfile="full" height="500px" version="1.1" width="500px" xmlns="http://www.w3.org/2000/svg" xmlns:ev="http://www.w3.org/2001/xml-events" xmlns:xlink="http://www.w3.org/1999/xlink"><defs><pattern height="10" id="id41" patternUnits="userSpaceOnUse" width="10"><rect fill="white" height="10" stroke="gray" width="10" x="0" y="0" /></pattern><pattern height="10" id="id42" patternUnits="userSpaceOnUse" width="10"><rect fill="white" height="10" stroke="gray" width="10" x="0" y="0" /></pattern><pattern height="10" id="id43" patternUnits="userSpaceOnUse" width="10"><rect fill="white" height="10" stroke="gray" width="10" x="0" y="0" /></pattern><pattern height="10" id="id44" patternUnits="userSpaceOnUse" width="10"><rect fill="white" height="10" stroke="gray" width="10" x="0" y="0" /></pattern><pattern height="10" id="id45" patternUnits="userSpaceOnUse" width="10"><rect fill="white" height="10" stroke="gray" width="10" x="0" y="0" /></pattern><pattern height="10" id="id46" patternUnits="userSpaceOnUse" width="10"><rect fill="white" height="10" stroke="gray" width="10" x="0" y="0" /></pattern><pattern height="10" id="id47" patternUnits="userSpaceOnUse" width="10"><rect fill="white" height="10" stroke="gray" width="10" x="0" y="0" /></pattern><pattern height="10" id="id48" patternUnits="userSpaceOnUse" width="10"><rect fill="white" height="10" stroke="gray" width="10" x="0" y="0" /></pattern><pattern height="10" id="id49" patternUnits="userSpaceOnUse" width="10"><rect fill="white" height="10" stroke="gray" width="10" x="0" y="0" /></pattern><pattern height="10" id="id50" patternUnits="userSpaceOnUse" width="10"><rect fill="white" height="10" stroke="gray" width="10" x="0" y="0" /></pattern><pattern height="10" id="id51" patternUnits="userSpaceOnUse" width="10"><rect fill="white" height="10" stroke="gray" width="10" x="0" y="0" /></pattern><pattern height="10" id="id52" patternUnits="userSpaceOnUse" width="10"><rect fill="white" height="10" stroke="gray" width="10" x="0" y="0" /></pattern><pattern height="10" id="id53" patternUnits="userSpaceOnUse" width="10"><rect fill="white" height="10" stroke="gray" width="10" x="0" y="0" /></pattern><pattern height="10" id="id54" patternUnits="userSpaceOnUse" width="10"><rect fill="white" height="10" stroke="gray" width="10" x="0" y="0" /></pattern><pattern height="10" id="id55" patternUnits="userSpaceOnUse" width="10"><rect fill="white" height="10" stroke="gray" width="10" x="0" y="0" /></pattern><pattern height="10" id="id56" patternUnits="userSpaceOnUse" width="10"><rect fill="white" height="10" stroke="gray" width="10" x="0" y="0" /></pattern><pattern height="10" id="id57" patternUnits="userSpaceOnUse" width="10"><rect fill="white" height="10" stroke="gray" width="10" x="0" y="0" /></pattern><pattern height="10" id="id58" patternUnits="userSpaceOnUse" width="10"><rect fill="white" height="10" stroke="gray" width="10" x="0" y="0" /></pattern><pattern height="10" id="id59" patternUnits="userSpaceOnUse" width="10"><rect fill="white" height="10" stroke="gray" width="10" x="0" y="0" /></pattern><pattern height="10" id="id60" patternUnits="userSpaceOnUse" width="10"><rect fill="white" height="10" stroke="gray" width="10" x="0" y="0" /></pattern><pattern height="10" id="id61" patternUnits="userSpaceOnUse" width="10"><rect fill="white" height="10" stroke="gray" width="10" x="0" y="0" /></pattern><pattern height="10" id="id62" patternUnits="userSpaceOnUse" width="10"><rect fill="white" height="10" stroke="gray" width="10" x="0" y="0" /></pattern><pattern height="10" id="id63" patternUnits="userSpaceOnUse" width="10"><rect fill="white" height="10" stroke="gray" width="10" x="0" y="0" /></pattern></defs><rect fill="black" height="500" stroke="black" stroke-width="2" width="500" x="0" y="0" /><g><rect fill="url(#id41) none" height="50" stroke="black" stroke-width="1" width="60" x="30" y="10" /></g><g><rect fill="url(#id42) none" height="70" stroke="black" stroke-width="1" width="120" x="10" y="80" /></g><g><rect fill="url(#id43) none" height="80" stroke="black" stroke-width="1" width="110" x="10" y="180" /></g><g><rect fill="url(#id44) none" height="90" stroke="black" stroke-width="1" width="150" x="170" y="20" /></g><g><rect fill="url(#id45) none" height="130" stroke="black" stroke-width="1" width="60" x="160" y="130" /></g><g><rect fill="url(#id46) none" height="100" stroke="black" stroke-width="1" width="60" x="260" y="150" /></g><g><rect fill="url(#id47) none" height="40" stroke="black" stroke-width="1" width="50" x="370" y="40" /></g><g><rect fill="url(#id48) none" height="120" stroke="black" stroke-width="1" width="110" x="380" y="140" /></g><g><rect fill="url(#id49) none" height="180" stroke="black" stroke-width="1" width="100" x="20" y="280" /></g><g><rect fill="url(#id50) none" height="210" stroke="black" stroke-width="1" width="90" x="150" y="280" /></g><g><rect fill="url(#id51) none" height="170" stroke="black" stroke-width="1" width="60" x="290" y="300" /></g><g><rect fill="url(#id52) none" height="120" stroke="black" stroke-width="1" width="100" x="380" y="330" /></g><g><rect fill="url(#id53) none" height="10" width="10" x="60" y="40" /></g><g><rect fill="url(#id53) none" height="330" width="10" x="70" y="40" /></g><g><rect fill="url(#id54) none" height="10" width="340" x="60" y="40" /></g><g><rect fill="url(#id54) none" height="20" width="10" x="400" y="40" /></g><g><rect fill="url(#id55) none" height="10" width="190" x="60" y="60" /></g><g><rect fill="url(#id55) none" height="20" width="10" x="60" y="40" /></g><g><rect fill="url(#id56) none" height="10" width="10" x="60" y="40" /></g><g><rect fill="url(#id56) none" height="80" width="10" x="70" y="40" /></g><g><rect fill="url(#id57) none" height="10" width="20" x="60" y="220" /></g><g><rect fill="url(#id57) none" height="100" width="10" x="70" y="120" /></g><g><rect fill="url(#id58) none" height="10" width="60" x="190" y="200" /></g><g><rect fill="url(#id58) none" height="140" width="10" x="240" y="60" /></g><g><rect fill="url(#id59) none" height="10" width="100" x="190" y="200" /></g><g><rect fill="url(#id60) none" height="10" width="40" x="400" y="60" /></g><g><rect fill="url(#id60) none" height="140" width="10" x="440" y="60" /></g><g><rect fill="url(#id61) none" height="10" width="260" x="70" y="380" /></g><g><rect fill="url(#id61) none" height="10" width="10" x="70" y="370" /></g><g><rect fill="url(#id62) none" height="10" width="140" x="70" y="380" /></g><g><rect fill="url(#id62) none" height="10" width="10" x="70" y="370" /></g><g><rect fill="url(#id63) none" height="10" width="120" x="320" y="390" /></g><g><rect fill="url(#id63) none" height="10" width="10" x="320" y="380" /></g><rect fill="white" height="20" stroke="blue" width="20" x="20" y="440" /><g><rect fill="white" height="20" stroke="black" width="2.5" x="20.0" y="440" /><rect fill="white" height="20" stroke="black" width="2.5" x="22.5" y="440" /><rect fill="white" height="20" stroke="black" width="2.5" x="25.0" y="440" /><rect fill="white" height="20" stroke="black" width="2.5" x="27.5" y="440" /><rect fill="white" height="20" stroke="black" width="2.5" x="30.0" y="440" /><rect fill="white" height="20" stroke="black" width="2.5" x="32.5" y="440" /><rect fill="white" height="20" stroke="black" width="2.5" x="35.0" y="440" /><rect fill="white" height="20" stroke="black" width="2.5" x="37.5" y="440" /></g><rect fill="red" height="10" width="10" x="220" y="480" /><text alignment-baseline="middle" fill="black" font-size="15.0" text-anchor="middle" x="60.0" y="35.0">1</text><text alignment-baseline="middle" fill="black" font-size="15.0" text-anchor="middle" x="70.0" y="115.0">2</text><text alignment-baseline="middle" fill="black" font-size="15.0" text-anchor="middle" x="65.0" y="220.0">3</text><text alignment-baseline="middle" fill="black" font-size="15.0" text-anchor="middle" x="245.0" y="65.0">4</text><text alignment-baseline="middle" fill="black" font-size="15.0" text-anchor="middle" x="190.0" y="195.0">5</text><text alignment-baseline="middle" fill="black" font-size="15.0" text-anchor="middle" x="290.0" y="200.0">6</text><text alignment-baseline="middle" fill="black" font-size="15.0" text-anchor="middle" x="395.0" y="60.0">7</text><text alignment-baseline="middle" fill="black" font-size="15.0" text-anchor="middle" x="435.0" y="200.0">8</text><text alignment-baseline="middle" fill="black" font-size="15.0" text-anchor="middle" x="70.0" y="370.0">9</text><text alignment-baseline="middle" fill="black" font-size="15.0" text-anchor="middle" x="195.0" y="385.0">10</text><text alignment-baseline="middle" fill="black" font-size="15.0" text-anchor="middle" x="320.0" y="385.0">11</text><text alignment-baseline="middle" fill="black" font-size="15.0" text-anchor="middle" x="430.0" y="390.0">12</text></svg>