<?xml version="1.0" encoding="utf-8" ?>
<svg baseProfile="full" height="1000px" version="1.1" width="1000px" xmlns="http://www.w3.org/2000/svg" xmlns:ev="http://www.w3.org/2001/xml-events" xmlns:xlink="http://www.w3.org/1999/xlink"><defs><pattern height="20" id="id115" patternUnits="userSpaceOnUse" width="20"><rect fill="white" height="20" stroke="gray" width="20" x="0" y="0" /></pattern><pattern height="20" id="id116" patternUnits="userSpaceOnUse" width="20"><rect fill="white" height="20" stroke="gray" width="20" x="0" y="0" /></pattern><pattern height="20" id="id117" patternUnits="userSpaceOnUse" width="20"><rect fill="white" height="20" stroke="gray" width="20" x="0" y="0" /></pattern><pattern height="20" id="id118" patternUnits="userSpaceOnUse" width="20"><rect fill="white" height="20" stroke="gray" width="20" x="0" y="0" /></pattern><pattern height="20" id="id119" patternUnits="userSpaceOnUse" width="20"><rect fill="white" height="20" stroke="gray" width="20" x="0" y="0" /></pattern><pattern height="20" id="id120" patternUnits="userSpaceOnUse" width="20"><rect fill="white" height="20" stroke="gray" width="20" x="0" y="0" /></pattern><pattern height="20" id="id121" patternUnits="userSpaceOnUse" width="20"><rect fill="white" height="20" stroke="gray" width="20" x="0" y="0" /></pattern><pattern height="20" id="id122" patternUnits="userSpaceOnUse" width="20"><rect fill="white" height="20" stroke="gray" width="20" x="0" y="0" /></pattern><pattern height="20" id="id123" patternUnits="userSpaceOnUse" width="20"><rect fill="white" height="20" stroke="gray" width="20" x="0" y="0" /></pattern><pattern height="20" id="id124" patternUnits="userSpaceOnUse" width="20"><rect fill="white" height="20" stroke="gray" width="20" x="0" y="0" /></pattern><pattern height="20" id="id125" patternUnits="userSpaceOnUse" width="20"><rect fill="white" height="20" stroke="gray" width="20" x="0" y="0" /></pattern><pattern height="20" id="id126" patternUnits="userSpaceOnUse" width="20"><rect fill="white" height="20" stroke="gray" width="20" x="0" y="0" /></pattern><pattern height="20" id="id127" patternUnits="userSpaceOnUse" width="20"><rect fill="white" height="20" stroke="gray" width="20" x="0" y="0" /></pattern><pattern height="20" id="id128" patternUnits="userSpaceOnUse" width="20"><rect fill="white" height="20" stroke="gray" width="20" x="0" y="0" /></pattern><pattern height="20" id="id129" patternUnits="userSpaceOnUse" width="20"><rect fill="white" height="20" stroke="gray" width="20" x="0" y="0" /></pattern><pattern height="20" id="id130" patternUnits="userSpaceOnUse" width="20"><rect fill="white" height="20" stroke="gray" width="20" x="0" y="0" /></pattern><pattern height="20" id="id131" patternUnits="userSpaceOnUse" width="20"><rect fill="white" height="20" stroke="gray" width="20" x="0" y="0" /></pattern></defs><rect fill="black" height="1000" stroke="black" stroke-width="2" width="1000" x="0" y="0" /><g><rect fill="url(#id115) none" height="120" stroke="black" stroke-width="1" width="180" x="100" y="80" /></g><g><rect fill="url(#id116) none" height="220" stroke="black" stroke-width="1" width="120" x="40" y="260" /></g><g><rect fill="url(#id117) none" height="200" stroke="black" stroke-width="1" width="80" x="380" y="240" /></g><g><rect fill="url(#id118) none" height="420" stroke="black" stroke-width="1" width="180" x="40" y="540" /></g><g><rect fill="url(#id119) none" height="220" stroke="black" stroke-width="1" width="180" x="260" y="760" /></g><g><rect fill="url(#id120) none" height="220" stroke="black" stroke-width="1" width="240" x="500" y="60" /></g><g><rect fill="url(#id121) none" height="320" stroke="black" stroke-width="1" width="140" x="800" y="20" /></g><g><rect fill="url(#id122) none" height="220" stroke="black" stroke-width="1" width="440" x="500" y="460" /></g><g><rect fill="url(#id123) none" height="160" stroke="black" stroke-width="1" width="460" x="500" y="740" /></g><g><rect fill="url(#id124) none" height="20" width="420" x="200" y="140" /></g><g><rect fill="url(#id124) none" height="20" width="20" x="620" y="140" /></g><g><rect fill="url(#id125) none" height="20" width="100" x="100" y="140" /></g><g><rect fill="url(#id125) none" height="220" width="20" x="100" y="140" /></g><g><rect fill="url(#id126) none" height="20" width="40" x="100" y="760" /></g><g><rect fill="url(#id126) none" height="400" width="20" x="100" y="360" /></g><g><rect fill="url(#id127) none" height="20" width="320" x="100" y="340" /></g><g><rect fill="url(#id127) none" height="20" width="20" x="100" y="340" /></g><g><rect fill="url(#id128) none" height="20" width="240" x="120" y="760" /></g><g><rect fill="url(#id128) none" height="120" width="20" x="360" y="760" /></g><g><rect fill="url(#id129) none" height="20" width="120" x="620" y="820" /></g><g><rect fill="url(#id129) none" height="660" width="20" x="620" y="160" /></g><g><rect fill="url(#id130) none" height="20" width="120" x="620" y="560" /></g><g><rect fill="url(#id130) none" height="400" width="20" x="620" y="160" /></g><g><rect fill="url(#id131) none" height="20" width="280" x="620" y="180" /></g><g><rect fill="url(#id131) none" height="20" width="20" x="620" y="160" /></g><rect fill="brown" height="6.666666666666667" stroke="black" width="20" x="420" y="973.3333333333334" /><rect fill="white" height="40" stroke="red" width="40" x="420" y="240" /><g transform="rotate(90,440.0,260.0)"><rect fill="white" height="24" stroke="black" width="5.0" x="420.0" y="248" /><rect fill="white" height="26" stroke="black" width="5.0" x="425.0" y="247" /><rect fill="white" height="28" stroke="black" width="5.0" x="430.0" y="246" /><rect fill="white" height="30" stroke="black" width="5.0" x="435.0" y="245" /><rect fill="white" height="32" stroke="black" width="5.0" x="440.0" y="244" /><rect fill="white" height="34" stroke="black" width="5.0" x="445.0" y="243" /><rect fill="white" height="36" stroke="black" width="5.0" x="450.0" y="242" /><rect fill="white" height="38" stroke="black" width="5.0" x="455.0" y="241" /></g><text alignment-baseline="middle" fill="black" font-size="20" text-anchor="middle" x="190.0" y="140.0">1</text><text alignment-baseline="middle" fill="black" font-size="20" text-anchor="middle" x="100.0" y="370.0">2</text><text alignment-baseline="middle" fill="black" font-size="20" text-anchor="middle" x="420.0" y="340.0">3</text><text alignment-baseline="middle" fill="black" font-size="20" text-anchor="middle" x="130.0" y="750.0">4</text><text alignment-baseline="middle" fill="black" font-size="20" text-anchor="middle" x="350.0" y="870.0">5</text><text alignment-baseline="middle" fill="black" font-size="20" text-anchor="middle" x="620.0" y="170.0">6</text><text alignment-baseline="middle" fill="black" font-size="20" text-anchor="middle" x="870.0" y="180.0">7</text><text alignment-baseline="middle" fill="black" font-size="20" text-anchor="middle" x="720.0" y="570.0">8</text><text alignment-baseline="middle" fill="black" font-size="20" text-anchor="middle" x="730.0" y="820.0">9</text></svg>