<?xml version="1.0" encoding="utf-8" ?>
<svg baseProfile="full" height="500px" version="1.1" width="500px" xmlns="http://www.w3.org/2000/svg" xmlns:ev="http://www.w3.org/2001/xml-events" xmlns:xlink="http://www.w3.org/1999/xlink"><defs><pattern height="10" id="id28" patternUnits="userSpaceOnUse" width="10"><rect fill="white" height="10" stroke="gray" width="10" x="0" y="0" /></pattern><pattern height="10" id="id29" patternUnits="userSpaceOnUse" width="10"><rect fill="white" height="10" stroke="gray" width="10" x="0" y="0" /></pattern><pattern height="10" id="id30" patternUnits="userSpaceOnUse" width="10"><rect fill="white" height="10" stroke="gray" width="10" x="0" y="0" /></pattern><pattern height="10" id="id31" patternUnits="userSpaceOnUse" width="10"><rect fill="white" height="10" stroke="gray" width="10" x="0" y="0" /></pattern><pattern height="10" id="id32" patternUnits="userSpaceOnUse" width="10"><rect fill="white" height="10" stroke="gray" width="10" x="0" y="0" /></pattern><pattern height="10" id="id33" patternUnits="userSpaceOnUse" width="10"><rect fill="white" height="10" stroke="gray" width="10" x="0" y="0" /></pattern><pattern height="10" id="id34" patternUnits="userSpaceOnUse" width="10"><rect fill="white" height="10" stroke="gray" width="10" x="0" y="0" /></pattern><pattern height="10" id="id35" patternUnits="userSpaceOnUse" width="10"><rect fill="white" height="10" stroke="gray" width="10" x="0" y="0" /></pattern><pattern height="10" id="id36" patternUnits="userSpaceOnUse" width="10"><rect fill="white" height="10" stroke="gray" width="10" x="0" y="0" /></pattern><pattern height="10" id="id37" patternUnits="userSpaceOnUse" width="10"><rect fill="white" height="10" stroke="gray" width="10" x="0" y="0" /></pattern><pattern height="10" id="id38" patternUnits="userSpaceOnUse" width="10"><rect fill="white" height="10" stroke="gray" width="10" x="0" y="0" /></pattern><pattern height="10" id="id39" patternUnits="userSpaceOnUse" width="10"><rect fill="white" height="10" stroke="gray" width="10" x="0" y="0" /></pattern><pattern height="10" id="id40" patternUnits="userSpaceOnUse" width="10"><rect fill="white" height="10" stroke="gray" width="10" x="0" y="0" /></pattern><pattern height="10" id="id41" patternUnits="userSpaceOnUse" width="10"><rect fill="white" height="10" stroke="gray" width="10" x="0" y="0" /></pattern><pattern height="10" id="id42" patternUnits="userSpaceOnUse" width="10"><rect fill="white" height="10" stroke="gray" width="10" x="0" y="0" /></pattern></defs><rect fill="black" height="500" stroke="black" stroke-width="2" width="500" x="0" y="0" /><g><rect fill="url(#id28) none" height="190" stroke="black" stroke-width="1" width="40" x="20" y="10" /></g><g><rect fill="url(#id29) none" height="180" stroke="black" stroke-width="1" width="60" x="170" y="20" /></g><g><rect fill="url(#id30) none" height="40" stroke="black" stroke-width="1" width="80" x="20" y="250" /></g><g><rect fill="url(#id31) none" height="60" stroke="black" stroke-width="1" width="150" x="80" y="430" /></g><g><rect fill="url(#id32) none" height="100" stroke="black" stroke-width="1" width="190" x="300" y="10" /></g><g><rect fill="url(#id33) none" height="190" stroke="black" stroke-width="1" width="70" x="260" y="150" /></g><g><rect fill="url(#id34) none" height="50" stroke="black" stroke-width="1" width="50" x="370" y="200" /></g><g><rect fill="url(#id35) none" height="110" stroke="black" stroke-width="1" width="50" x="350" y="370" /></g><g><rect fill="url(#id36) none" height="10" width="360" x="40" y="60" /></g><g><rect fill="url(#id36) none" height="40" width="10" x="40" y="60" /></g><g><rect fill="url(#id37) none" height="10" width="30" x="40" y="270" /></g><g><rect fill="url(#id37) none" height="170" width="10" x="40" y="100" /></g><g><rect fill="url(#id38) none" height="10" width="170" x="40" y="110" /></g><g><rect fill="url(#id38) none" height="10" width="10" x="40" y="100" /></g><g><rect fill="url(#id39) none" height="10" width="100" x="60" y="270" /></g><g><rect fill="url(#id39) none" height="190" width="10" x="160" y="270" /></g><g><rect fill="url(#id40) none" height="10" width="110" x="300" y="240" /></g><g><rect fill="url(#id40) none" height="180" width="10" x="400" y="60" /></g><g><rect fill="url(#id41) none" height="10" width="80" x="300" y="240" /></g><g><rect fill="url(#id41) none" height="180" width="10" x="380" y="240" /></g><g><rect fill="url(#id42) none" height="10" width="110" x="300" y="240" /></g><g><rect fill="url(#id42) none" height="20" width="10" x="400" y="220" /></g><rect fill="white" height="20" stroke="blue" width="20" x="170" y="20" /><g><rect fill="white" height="20" stroke="black" width="2.5" x="170.0" y="20" /><rect fill="white" height="20" stroke="black" width="2.5" x="172.5" y="20" /><rect fill="white" height="20" stroke="black" width="2.5" x="175.0" y="20" /><rect fill="white" height="20" stroke="black" width="2.5" x="177.5" y="20" /><rect fill="white" height="20" stroke="black" width="2.5" x="180.0" y="20" /><rect fill="white" height="20" stroke="black" width="2.5" x="182.5" y="20" /><rect fill="white" height="20" stroke="black" width="2.5" x="185.0" y="20" /><rect fill="white" height="20" stroke="black" width="2.5" x="187.5" y="20" /></g><rect fill="white" height="20" stroke="red" width="20" x="20" y="180" /><g><rect fill="white" height="4" stroke="black" width="2.5" x="20.0" y="188" /><rect fill="white" height="6" stroke="black" width="2.5" x="22.5" y="187" /><rect fill="white" height="8" stroke="black" width="2.5" x="25.0" y="186" /><rect fill="white" height="10" stroke="black" width="2.5" x="27.5" y="185" /><rect fill="white" height="12" stroke="black" width="2.5" x="30.0" y="184" /><rect fill="white" height="14" stroke="black" width="2.5" x="32.5" y="183" /><rect fill="white" height="16" stroke="black" width="2.5" x="35.0" y="182" /><rect fill="white" height="18" stroke="black" width="2.5" x="37.5" y="181" /></g><text alignment-baseline="middle" fill="black" font-size="20" text-anchor="middle" x="40.0" y="105.0">1</text><text alignment-baseline="middle" fill="black" font-size="20" text-anchor="middle" x="200.0" y="110.0">2</text><text alignment-baseline="middle" fill="black" font-size="20" text-anchor="middle" x="60.0" y="270.0">3</text><text alignment-baseline="middle" fill="black" font-size="20" text-anchor="middle" x="155.0" y="460.0">4</text><text alignment-baseline="middle" fill="black" font-size="20" text-anchor="middle" x="395.0" y="60.0">5</text><text alignment-baseline="middle" fill="black" font-size="20" text-anchor="middle" x="295.0" y="245.0">6</text><text alignment-baseline="middle" fill="black" font-size="20" text-anchor="middle" x="395.0" y="225.0">7</text><text alignment-baseline="middle" fill="black" font-size="20" text-anchor="middle" x="375.0" y="425.0">8</text></svg>