<?xml version="1.0" encoding="utf-8" ?>
<svg baseProfile="full" height="1000px" version="1.1" width="1000px" xmlns="http://www.w3.org/2000/svg" xmlns:ev="http://www.w3.org/2001/xml-events" xmlns:xlink="http://www.w3.org/1999/xlink"><defs><pattern height="20" id="id132" patternUnits="userSpaceOnUse" width="20"><rect fill="white" height="20" stroke="gray" width="20" x="0" y="0" /></pattern><pattern height="20" id="id133" patternUnits="userSpaceOnUse" width="20"><rect fill="white" height="20" stroke="gray" width="20" x="0" y="0" /></pattern><pattern height="20" id="id134" patternUnits="userSpaceOnUse" width="20"><rect fill="white" height="20" stroke="gray" width="20" x="0" y="0" /></pattern><pattern height="20" id="id135" patternUnits="userSpaceOnUse" width="20"><rect fill="white" height="20" stroke="gray" width="20" x="0" y="0" /></pattern><pattern height="20" id="id136" patternUnits="userSpaceOnUse" width="20"><rect fill="white" height="20" stroke="gray" width="20" x="0" y="0" /></pattern><pattern height="20" id="id137" patternUnits="userSpaceOnUse" width="20"><rect fill="white" height="20" stroke="gray" width="20" x="0" y="0" /></pattern><pattern height="20" id="id138" patternUnits="userSpaceOnUse" width="20"><rect fill="white" height="20" stroke="gray" width="20" x="0" y="0" /></pattern><pattern height="20" id="id139" patternUnits="userSpaceOnUse" width="20"><rect fill="white" height="20" stroke="gray" width="20" x="0" y="0" /></pattern><pattern height="20" id="id140" patternUnits="userSpaceOnUse" width="20"><rect fill="white" height="20" stroke="gray" width="20" x="0" y="0" /></pattern><pattern height="20" id="id141" patternUnits="userSpaceOnUse" width="20"><rect fill="white" height="20" stroke="gray" width="20" x="0" y="0" /></pattern><pattern height="20" id="id142" patternUnits="userSpaceOnUse" width="20"><rect fill="white" height="20" stroke="gray" width="20" x="0" y="0" /></pattern><pattern height="20" id="id143" patternUnits="userSpaceOnUse" width="20"><rect fill="white" height="20" stroke="gray" width="20" x="0" y="0" /></pattern><pattern height="20" id="id144" patternUnits="userSpaceOnUse" width="20"><rect fill="white" height="20" stroke="gray" width="20" x="0" y="0" /></pattern><pattern height="20" id="id145" patternUnits="userSpaceOnUse" width="20"><rect fill="white" height="20" stroke="gray" width="20" x="0" y="0" /></pattern><pattern height="20" id="id146" patternUnits="userSpaceOnUse" width="20"><rect fill="white" height="20" stroke="gray" width="20" x="0" y="0" /></pattern><pattern height="20" id="id147" patternUnits="userSpaceOnUse" width="20"><rect fill="white" height="20" stroke="gray" width="20" x="0" y="0" /></pattern><pattern height="20" id="id148" patternUnits="userSpaceOnUse" width="20"><rect fill="white" height="20" stroke="gray" width="20" x="0" y="0" /></pattern><pattern height="20" id="id149" patternUnits="userSpaceOnUse" width="20"><rect fill="white" height="20" stroke="gray" width="20" x="0" y="0" /></pattern><pattern height="20" id="id150" patternUnits="userSpaceOnUse" width="20"><rect fill="white" height="20" stroke="gray" width="20" x="0" y="0" /></pattern></defs><rect fill="black" height="1000" stroke="black" stroke-width="2" width="1000" x="0" y="0" /><g><rect fill="url(#id132) none" height="100" stroke="black" stroke-width="1" width="200" x="140" y="60" /></g><g><rect fill="url(#id133) none" height="100" stroke="black" stroke-width="1" width="100" x="40" y="220" /></g><g><rect fill="url(#id134) none" height="80" stroke="black" stroke-width="1" width="160" x="180" y="320" /></g><g><rect fill="url(#id135) none" height="160" stroke="black" stroke-width="1" width="180" x="420" y="300" /></g><g><rect fill="url(#id136) none" height="140" stroke="black" stroke-width="1" width="140" x="660" y="20" /></g><g><rect fill="url(#id137) none" height="100" stroke="black" stroke-width="1" width="80" x="740" y="240" /></g><g><rect fill="url(#id138) none" height="140" stroke="black" stroke-width="1" width="220" x="40" y="560" /></g><g><rect fill="url(#id139) none" height="140" stroke="black" stroke-width="1" width="400" x="60" y="820" /></g><g><rect fill="url(#id140) none" height="80" stroke="black" stroke-width="1" width="320" x="600" y="580" /></g><g><rect fill="url(#id141) none" height="100" stroke="black" stroke-width="1" width="280" x="580" y="780" /></g><g><rect fill="url(#id142) none" height="20" width="100" x="160" y="640" /></g><g><rect fill="url(#id142) none" height="520" width="20" x="240" y="120" /></g><g><rect fill="url(#id143) none" height="20" width="280" x="240" y="120" /></g><g><rect fill="url(#id143) none" height="260" width="20" x="520" y="120" /></g><g><rect fill="url(#id144) none" height="20" width="160" x="80" y="120" /></g><g><rect fill="url(#id144) none" height="160" width="20" x="80" y="120" /></g><g><rect fill="url(#id145) none" height="20" width="200" x="80" y="360" /></g><g><rect fill="url(#id145) none" height="80" width="20" x="80" y="280" /></g><g><rect fill="url(#id146) none" height="20" width="200" x="520" y="80" /></g><g><rect fill="url(#id146) none" height="300" width="20" x="520" y="80" /></g><g><rect fill="url(#id147) none" height="20" width="60" x="720" y="80" /></g><g><rect fill="url(#id147) none" height="200" width="20" x="780" y="80" /></g><g><rect fill="url(#id148) none" height="20" width="620" x="160" y="640" /></g><g><rect fill="url(#id148) none" height="20" width="20" x="760" y="620" /></g><g><rect fill="url(#id149) none" height="20" width="100" x="160" y="640" /></g><g><rect fill="url(#id149) none" height="240" width="20" x="260" y="640" /></g><g><rect fill="url(#id150) none" height="20" width="40" x="720" y="620" /></g><g><rect fill="url(#id150) none" height="220" width="20" x="720" y="620" /></g><rect fill="white" height="40" stroke="blue" width="40" x="560" y="300" /><g transform="rotate(90,580.0,320.0)"><rect fill="white" height="40" stroke="black" width="5.0" x="560.0" y="300" /><rect fill="white" height="40" stroke="black" width="5.0" x="565.0" y="300" /><rect fill="white" height="40" stroke="black" width="5.0" x="570.0" y="300" /><rect fill="white" height="40" stroke="black" width="5.0" x="575.0" y="300" /><rect fill="white" height="40" stroke="black" width="5.0" x="580.0" y="300" /><rect fill="white" height="40" stroke="black" width="5.0" x="585.0" y="300" /><rect fill="white" height="40" stroke="black" width="5.0" x="590.0" y="300" /><rect fill="white" height="40" stroke="black" width="5.0" x="595.0" y="300" /></g><rect fill="white" height="40" stroke="red" width="40" x="760" y="20" /><g><rect fill="white" height="40" stroke="black" width="5.0" x="760.0" y="20" /><rect fill="white" height="38" stroke="black" width="5.0" x="765.0" y="21" /><rect fill="white" height="36" stroke="black" width="5.0" x="770.0" y="22" /><rect fill="white" height="34" stroke="black" width="5.0" x="775.0" y="23" /><rect fill="white" height="32" stroke="black" width="5.0" x="780.0" y="24" /><rect fill="white" height="30" stroke="black" width="5.0" x="785.0" y="25" /><rect fill="white" height="28" stroke="black" width="5.0" x="790.0" y="26" /><rect fill="white" height="26" stroke="black" width="5.0" x="795.0" y="27" /></g><text alignment-baseline="middle" fill="black" font-size="20" text-anchor="middle" x="240.0" y="110.0">1</text><text alignment-baseline="middle" fill="black" font-size="20" text-anchor="middle" x="90.0" y="270.0">2</text><text alignment-baseline="middle" fill="black" font-size="20" text-anchor="middle" x="260.0" y="360.0">3</text><text alignment-baseline="middle" fill="black" font-size="20" text-anchor="middle" x="510.0" y="380.0">4</text><text alignment-baseline="middle" fill="black" font-size="20" text-anchor="middle" x="730.0" y="90.0">5</text><text alignment-baseline="middle" fill="black" font-size="20" text-anchor="middle" x="780.0" y="290.0">6</text><text alignment-baseline="middle" fill="black" font-size="20" text-anchor="middle" x="150.0" y="630.0">7</text><text alignment-baseline="middle" fill="black" font-size="20" text-anchor="middle" x="260.0" y="890.0">8</text><text alignment-baseline="middle" fill="black" font-size="20" text-anchor="middle" x="760.0" y="620.0">9</text><text alignment-baseline="middle" fill="black" font-size="20" text-anchor="middle" x="720.0" y="830.0">10</text></svg>