<?xml version="1.0" encoding="utf-8" ?>
<svg baseProfile="full" height="800px" version="1.1" width="800px" xmlns="http://www.w3.org/2000/svg" xmlns:ev="http://www.w3.org/2001/xml-events" xmlns:xlink="http://www.w3.org/1999/xlink"><defs><pattern height="20" id="id1" patternUnits="userSpaceOnUse" width="20"><rect fill="white" height="20" stroke="black" width="20" x="0" y="0" /></pattern><pattern height="20" id="id2" patternUnits="userSpaceOnUse" width="20"><rect fill="white" height="20" stroke="black" width="20" x="0" y="0" /></pattern><pattern height="20" id="id3" patternUnits="userSpaceOnUse" width="20"><rect fill="white" height="20" stroke="black" width="20" x="0" y="0" /></pattern><pattern height="20" id="id4" patternUnits="userSpaceOnUse" width="20"><rect fill="white" height="20" stroke="black" width="20" x="0" y="0" /></pattern><pattern height="20" id="id5" patternUnits="userSpaceOnUse" width="20"><rect fill="white" height="20" stroke="black" width="20" x="0" y="0" /></pattern><pattern height="20" id="id6" patternUnits="userSpaceOnUse" width="20"><rect fill="white" height="20" stroke="black" width="20" x="0" y="0" /></pattern></defs><rect fill="black" height="800" stroke="black" stroke-width="2" width="800" x="0" y="0" /><g><rect fill="white" height="15.0" width="416.0" x="197.0" y="116.0" /></g><g><rect fill="white" height="1.0" width="15.0" x="613.0" y="116.0" /></g><g><rect fill="white" height="15.0" width="30.5" x="197.0" y="116.0" /></g><g><rect fill="white" height="259.5" width="15.0" x="227.5" y="116.0" /></g><g><rect fill="white" height="15.0" width="71.5" x="227.5" y="655.5" /></g><g><rect fill="white" height="280.0" width="15.0" x="227.5" y="375.5" /></g><g><rect fill="white" height="15.0" width="60.5" x="613.0" y="117.0" /></g><g><rect fill="white" height="528.0" width="15.0" x="673.5" y="117.0" /></g><g><rect fill="white" height="15.0" width="13.5" x="599.5" y="117.0" /></g><g><rect fill="white" height="267.5" width="15.0" x="599.5" y="117.0" /></g><g><rect fill="url(#id1) none" height="204" width="362" x="16" y="14" /><text alignment-baseline="middle" fill="black" font-size="20" text-anchor="middle" x="197.0" y="116.0">1</text></g><g><rect fill="url(#id2) none" height="247" width="185" x="135" y="252" /><text alignment-baseline="middle" fill="black" font-size="20" text-anchor="middle" x="227.5" y="375.5">2</text></g><g><rect fill="url(#id3) none" height="235" width="176" x="196" y="538" /><text alignment-baseline="middle" fill="black" font-size="20" text-anchor="middle" x="284.0" y="655.5">3</text></g><g><rect fill="url(#id4) none" height="148" width="240" x="493" y="43" /><text alignment-baseline="middle" fill="black" font-size="20" text-anchor="middle" x="613.0" y="117.0">4</text></g><g><rect fill="url(#id5) none" height="213" width="195" x="502" y="278" /><text alignment-baseline="middle" fill="black" font-size="20" text-anchor="middle" x="599.5" y="384.5">5</text></g><g><rect fill="url(#id6) none" height="240" width="159" x="594" y="525" /><text alignment-baseline="middle" fill="black" font-size="20" text-anchor="middle" x="673.5" y="645.0">6</text></g><rect fill="blue" height="30.0" width="10" x="16" y="66" /></svg>