<?xml version="1.0" encoding="utf-8" ?>
<svg baseProfile="full" height="800px" version="1.1" width="800px" xmlns="http://www.w3.org/2000/svg" xmlns:ev="http://www.w3.org/2001/xml-events" xmlns:xlink="http://www.w3.org/1999/xlink"><defs><pattern height="20" id="id1" patternUnits="userSpaceOnUse" width="20"><rect fill="white" height="20" stroke="black" width="20" x="0" y="0" /></pattern><pattern height="20" id="id2" patternUnits="userSpaceOnUse" width="20"><rect fill="white" height="20" stroke="black" width="20" x="0" y="0" /></pattern><pattern height="20" id="id3" patternUnits="userSpaceOnUse" width="20"><rect fill="white" height="20" stroke="black" width="20" x="0" y="0" /></pattern><pattern height="20" id="id4" patternUnits="userSpaceOnUse" width="20"><rect fill="white" height="20" stroke="black" width="20" x="0" y="0" /></pattern><pattern height="20" id="id5" patternUnits="userSpaceOnUse" width="20"><rect fill="white" height="20" stroke="black" width="20" x="0" y="0" /></pattern><pattern height="20" id="id6" patternUnits="userSpaceOnUse" width="20"><rect fill="white" height="20" stroke="black" width="20" x="0" y="0" /></pattern><pattern height="20" id="id7" patternUnits="userSpaceOnUse" width="20"><rect fill="white" height="20" stroke="black" width="20" x="0" y="0" /></pattern><pattern height="20" id="id8" patternUnits="userSpaceOnUse" width="20"><rect fill="white" height="20" stroke="black" width="20" x="0" y="0" /></pattern></defs><rect fill="black" height="800" stroke="black" stroke-width="2" width="800" x="0" y="0" /><g><rect fill="white" height="15.0" width="336" x="282" y="96" /></g><g><rect fill="white" height="24" width="15.0" x="282" y="96" /></g><g><rect fill="white" height="15.0" width="124" x="31" y="103" /></g><g><rect fill="white" height="616" width="15.0" x="155" y="103" /></g><g><rect fill="white" height="15.0" width="94.0" x="54" y="548" /></g><g><rect fill="white" height="388" width="15.0" x="54" y="160" /></g><g><rect fill="white" height="15.0" width="245.0" x="55" y="458" /></g><g><rect fill="white" height="14" width="15.0" x="55" y="444" /></g><g><rect fill="white" height="15.0" width="98" x="478" y="78" /></g><g><rect fill="white" height="507" width="15.0" x="478" y="78" /></g><g><rect fill="white" height="15.0" width="17" x="607" y="103" /></g><g><rect fill="white" height="272" width="15.0" x="607" y="103" /></g><g><rect fill="white" height="15.0" width="9" x="521" y="558" /></g><g><rect fill="white" height="176" width="15.0" x="530" y="558" /></g><rect fill="url(#id1) none" height="184" width="392" x="2" y="6" /><rect fill="url(#id2) none" height="373" width="156" x="30" y="208" /><rect fill="url(#id3) none" height="198" width="131" x="269" y="306" /><rect fill="url(#id4) none" height="179" width="313" x="6" y="584" /><rect fill="url(#id5) none" height="178" width="188" x="466" y="3" /><rect fill="url(#id6) none" height="165" width="251" x="486" y="271" /><rect fill="url(#id7) none" height="120" width="335" x="423" y="490" /><rect fill="url(#id8) none" height="152" width="152" x="507" y="628" /></svg>