<?xml version="1.0" encoding="utf-8" ?>
<svg baseProfile="full" height="800px" version="1.1" width="800px" xmlns="http://www.w3.org/2000/svg" xmlns:ev="http://www.w3.org/2001/xml-events" xmlns:xlink="http://www.w3.org/1999/xlink"><defs><pattern height="10" id="id1" patternUnits="userSpaceOnUse" width="10"><rect fill="white" height="10" stroke="gray" width="10" x="0" y="0" /></pattern><pattern height="10" id="id2" patternUnits="userSpaceOnUse" width="10"><rect fill="white" height="10" stroke="gray" width="10" x="0" y="0" /></pattern><pattern height="10" id="id3" patternUnits="userSpaceOnUse" width="10"><rect fill="white" height="10" stroke="gray" width="10" x="0" y="0" /></pattern><pattern height="10" id="id4" patternUnits="userSpaceOnUse" width="10"><rect fill="white" height="10" stroke="gray" width="10" x="0" y="0" /></pattern><pattern height="10" id="id5" patternUnits="userSpaceOnUse" width="10"><rect fill="white" height="10" stroke="gray" width="10" x="0" y="0" /></pattern><pattern height="10" id="id6" patternUnits="userSpaceOnUse" width="10"><rect fill="white" height="10" stroke="gray" width="10" x="0" y="0" /></pattern></defs><rect fill="black" height="800" stroke="black" stroke-width="2" width="800" x="0" y="0" /><g><rect fill="url(#id1) none" height="10" width="260" x="320" y="70" /></g><g><rect fill="url(#id1) none" height="30" width="10" x="320" y="70" /></g><g><rect fill="url(#id2) none" height="10" width="130" x="200" y="700" /></g><g><rect fill="url(#id2) none" height="600" width="10" x="320" y="100" /></g><g><rect fill="url(#id3) none" height="10" width="140" x="180" y="100" /></g><g><rect fill="url(#id3) none" height="320" width="10" x="180" y="100" /></g><g><rect fill="url(#id4) none" height="10" width="40" x="580" y="70" /></g><g><rect fill="url(#id4) none" height="250" width="10" x="620" y="70" /></g><g><rect fill="url(#id5) none" height="10" width="100" x="520" y="320" /></g><g><rect fill="url(#id5) none" height="260" width="10" x="520" y="320" /></g><g><rect fill="url(#id6) none" height="10" width="180" x="520" y="580" /></g><g><rect fill="url(#id6) none" height="20" width="10" x="700" y="580" /></g><rect fill="blue" height="10" width="10" x="20" y="770" /><rect fill="red" height="10" width="10" x="690" y="10" /></svg>