<?xml version="1.0" encoding="utf-8" ?>
<svg baseProfile="full" height="500px" version="1.1" width="500px" xmlns="http://www.w3.org/2000/svg" xmlns:ev="http://www.w3.org/2001/xml-events" xmlns:xlink="http://www.w3.org/1999/xlink"><defs><pattern height="10" id="id22" patternUnits="userSpaceOnUse" width="10"><rect fill="white" height="10" stroke="gray" width="10" x="0" y="0" /></pattern><pattern height="10" id="id23" patternUnits="userSpaceOnUse" width="10"><rect fill="white" height="10" stroke="gray" width="10" x="0" y="0" /></pattern><pattern height="10" id="id24" patternUnits="userSpaceOnUse" width="10"><rect fill="white" height="10" stroke="gray" width="10" x="0" y="0" /></pattern><pattern height="10" id="id25" patternUnits="userSpaceOnUse" width="10"><rect fill="white" height="10" stroke="gray" width="10" x="0" y="0" /></pattern><pattern height="10" id="id26" patternUnits="userSpaceOnUse" width="10"><rect fill="white" height="10" stroke="gray" width="10" x="0" y="0" /></pattern><pattern height="10" id="id27" patternUnits="userSpaceOnUse" width="10"><rect fill="white" height="10" stroke="gray" width="10" x="0" y="0" /></pattern><pattern height="10" id="id28" patternUnits="userSpaceOnUse" width="10"><rect fill="white" height="10" stroke="gray" width="10" x="0" y="0" /></pattern><pattern height="10" id="id29" patternUnits="userSpaceOnUse" width="10"><rect fill="white" height="10" stroke="gray" width="10" x="0" y="0" /></pattern><pattern height="10" id="id30" patternUnits="userSpaceOnUse" width="10"><rect fill="white" height="10" stroke="gray" width="10" x="0" y="0" /></pattern><pattern height="10" id="id31" patternUnits="userSpaceOnUse" width="10"><rect fill="white" height="10" stroke="gray" width="10" x="0" y="0" /></pattern><pattern height="10" id="id32" patternUnits="userSpaceOnUse" width="10"><rect fill="white" height="10" stroke="gray" width="10" x="0" y="0" /></pattern><pattern height="10" id="id33" patternUnits="userSpaceOnUse" width="10"><rect fill="white" height="10" stroke="gray" width="10" x="0" y="0" /></pattern><pattern height="10" id="id34" patternUnits="userSpaceOnUse" width="10"><rect fill="white" height="10" stroke="gray" width="10" x="0" y="0" /></pattern><pattern height="10" id="id35" patternUnits="userSpaceOnUse" width="10"><rect fill="white" height="10" stroke="gray" width="10" x="0" y="0" /></pattern><pattern height="10" id="id36" patternUnits="userSpaceOnUse" width="10"><rect fill="white" height="10" stroke="gray" width="10" x="0" y="0" /></pattern><pattern height="10" id="id37" patternUnits="userSpaceOnUse" width="10"><rect fill="white" height="10" stroke="gray" width="10" x="0" y="0" /></pattern><pattern height="10" id="id38" patternUnits="userSpaceOnUse" width="10"><rect fill="white" height="10" stroke="gray" width="10" x="0" y="0" /></pattern><pattern height="10" id="id39" patternUnits="userSpaceOnUse" width="10"><rect fill="white" height="10" stroke="gray" width="10" x="0" y="0" /></pattern><pattern height="10" id="id40" patternUnits="userSpaceOnUse" width="10"><rect fill="white" height="10" stroke="gray" width="10" x="0" y="0" /></pattern></defs><rect fill="black" height="500" stroke="black" stroke-width="2" width="500" x="0" y="0" /><g><rect fill="url(#id22) none" height="220" stroke="black" stroke-width="1" width="60" x="60" y="20" /></g><g><rect fill="url(#id23) none" height="110" stroke="black" stroke-width="1" width="110" x="160" y="90" /></g><g><rect fill="url(#id24) none" height="60" stroke="black" stroke-width="1" width="50" x="330" y="10" /></g><g><rect fill="url(#id25) none" height="150" stroke="black" stroke-width="1" width="40" x="310" y="110" /></g><g><rect fill="url(#id26) none" height="40" stroke="black" stroke-width="1" width="50" x="420" y="170" /></g><g><rect fill="url(#id27) none" height="60" stroke="black" stroke-width="1" width="60" x="10" y="430" /></g><g><rect fill="url(#id28) none" height="60" stroke="black" stroke-width="1" width="120" x="150" y="300" /></g><g><rect fill="url(#id29) none" height="50" stroke="black" stroke-width="1" width="50" x="150" y="420" /></g><g><rect fill="url(#id30) none" height="90" stroke="black" stroke-width="1" width="60" x="390" y="290" /></g><g><rect fill="url(#id31) none" height="60" stroke="black" stroke-width="1" width="80" x="300" y="430" /></g><g><rect fill="url(#id32) none" height="10" width="60" x="40" y="460" /></g><g><rect fill="url(#id32) none" height="330" width="10" x="90" y="130" /></g><g><rect fill="url(#id33) none" height="10" width="280" x="90" y="130" /></g><g><rect fill="url(#id33) none" height="90" width="10" x="360" y="40" /></g><g><rect fill="url(#id34) none" height="10" width="140" x="90" y="140" /></g><g><rect fill="url(#id34) none" height="10" width="10" x="90" y="130" /></g><g><rect fill="url(#id35) none" height="10" width="30" x="330" y="40" /></g><g><rect fill="url(#id35) none" height="140" width="10" x="330" y="40" /></g><g><rect fill="url(#id36) none" height="10" width="110" x="330" y="180" /></g><g><rect fill="url(#id36) none" height="10" width="10" x="440" y="180" /></g><g><rect fill="url(#id37) none" height="10" width="170" x="40" y="330" /></g><g><rect fill="url(#id37) none" height="130" width="10" x="40" y="330" /></g><g><rect fill="url(#id38) none" height="10" width="220" x="210" y="340" /></g><g><rect fill="url(#id38) none" height="10" width="10" x="210" y="330" /></g><g><rect fill="url(#id39) none" height="10" width="30" x="180" y="330" /></g><g><rect fill="url(#id39) none" height="110" width="10" x="180" y="330" /></g><g><rect fill="url(#id40) none" height="10" width="90" x="340" y="460" /></g><g><rect fill="url(#id40) none" height="120" width="10" x="420" y="340" /></g><rect fill="white" height="20" stroke="blue" width="20" x="160" y="90" /><g transform="rotate(90,170.0,100.0)"><rect fill="white" height="20" stroke="black" width="2.5" x="160.0" y="90" /><rect fill="white" height="20" stroke="black" width="2.5" x="162.5" y="90" /><rect fill="white" height="20" stroke="black" width="2.5" x="165.0" y="90" /><rect fill="white" height="20" stroke="black" width="2.5" x="167.5" y="90" /><rect fill="white" height="20" stroke="black" width="2.5" x="170.0" y="90" /><rect fill="white" height="20" stroke="black" width="2.5" x="172.5" y="90" /><rect fill="white" height="20" stroke="black" width="2.5" x="175.0" y="90" /><rect fill="white" height="20" stroke="black" width="2.5" x="177.5" y="90" /></g><rect fill="white" height="20" stroke="red" width="20" x="10" y="430" /><g transform="rotate(90,20.0,440.0)"><rect fill="white" height="4" stroke="black" width="2.5" x="10.0" y="438" /><rect fill="white" height="6" stroke="black" width="2.5" x="12.5" y="437" /><rect fill="white" height="8" stroke="black" width="2.5" x="15.0" y="436" /><rect fill="white" height="10" stroke="black" width="2.5" x="17.5" y="435" /><rect fill="white" height="12" stroke="black" width="2.5" x="20.0" y="434" /><rect fill="white" height="14" stroke="black" width="2.5" x="22.5" y="433" /><rect fill="white" height="16" stroke="black" width="2.5" x="25.0" y="432" /><rect fill="white" height="18" stroke="black" width="2.5" x="27.5" y="431" /></g><text alignment-baseline="middle" fill="black" font-size="15.0" text-anchor="middle" x="90.0" y="130.0">1</text><text alignment-baseline="middle" fill="black" font-size="15.0" text-anchor="middle" x="215.0" y="145.0">2</text><text alignment-baseline="middle" fill="black" font-size="15.0" text-anchor="middle" x="355.0" y="40.0">3</text><text alignment-baseline="middle" fill="black" font-size="15.0" text-anchor="middle" x="330.0" y="185.0">4</text><text alignment-baseline="middle" fill="black" font-size="15.0" text-anchor="middle" x="445.0" y="190.0">5</text><text alignment-baseline="middle" fill="black" font-size="15.0" text-anchor="middle" x="40.0" y="460.0">6</text><text alignment-baseline="middle" fill="black" font-size="15.0" text-anchor="middle" x="210.0" y="330.0">7</text><text alignment-baseline="middle" fill="black" font-size="15.0" text-anchor="middle" x="175.0" y="445.0">8</text><text alignment-baseline="middle" fill="black" font-size="15.0" text-anchor="middle" x="420.0" y="335.0">9</text><text alignment-baseline="middle" fill="black" font-size="15.0" text-anchor="middle" x="340.0" y="460.0">10</text></svg>