<?xml version="1.0" encoding="utf-8" ?>
<svg baseProfile="full" height="750px" version="1.1" width="750px" xmlns="http://www.w3.org/2000/svg" xmlns:ev="http://www.w3.org/2001/xml-events" xmlns:xlink="http://www.w3.org/1999/xlink"><defs><pattern height="15" id="id818" patternUnits="userSpaceOnUse" width="15"><rect fill="white" height="15" stroke="gray" width="15" x="0" y="0" /></pattern><pattern height="15" id="id819" patternUnits="userSpaceOnUse" width="15"><rect fill="white" height="15" stroke="gray" width="15" x="0" y="0" /></pattern><pattern height="15" id="id820" patternUnits="userSpaceOnUse" width="15"><rect fill="white" height="15" stroke="gray" width="15" x="0" y="0" /></pattern><pattern height="15" id="id821" patternUnits="userSpaceOnUse" width="15"><rect fill="white" height="15" stroke="gray" width="15" x="0" y="0" /></pattern><pattern height="15" id="id822" patternUnits="userSpaceOnUse" width="15"><rect fill="white" height="15" stroke="gray" width="15" x="0" y="0" /></pattern><pattern height="15" id="id823" patternUnits="userSpaceOnUse" width="15"><rect fill="white" height="15" stroke="gray" width="15" x="0" y="0" /></pattern><pattern height="15" id="id824" patternUnits="userSpaceOnUse" width="15"><rect fill="white" height="15" stroke="gray" width="15" x="0" y="0" /></pattern><pattern height="15" id="id825" patternUnits="userSpaceOnUse" width="15"><rect fill="white" height="15" stroke="gray" width="15" x="0" y="0" /></pattern><pattern height="15" id="id826" patternUnits="userSpaceOnUse" width="15"><rect fill="white" height="15" stroke="gray" width="15" x="0" y="0" /></pattern><pattern height="15" id="id827" patternUnits="userSpaceOnUse" width="15"><rect fill="white" height="15" stroke="gray" width="15" x="0" y="0" /></pattern><pattern height="15" id="id828" patternUnits="userSpaceOnUse" width="15"><rect fill="white" height="15" stroke="gray" width="15" x="0" y="0" /></pattern><pattern height="15" id="id829" patternUnits="userSpaceOnUse" width="15"><rect fill="white" height="15" stroke="gray" width="15" x="0" y="0" /></pattern><pattern height="15" id="id830" patternUnits="userSpaceOnUse" width="15"><rect fill="white" height="15" stroke="gray" width="15" x="0" y="0" /></pattern><pattern height="15" id="id831" patternUnits="userSpaceOnUse" width="15"><rect fill="white" height="15" stroke="gray" width="15" x="0" y="0" /></pattern><pattern height="15" id="id832" patternUnits="userSpaceOnUse" width="15"><rect fill="white" height="15" stroke="gray" width="15" x="0" y="0" /></pattern><pattern height="15" id="id833" patternUnits="userSpaceOnUse" width="15"><rect fill="white" height="15" stroke="gray" width="15" x="0" y="0" /></pattern><pattern height="15" id="id834" patternUnits="userSpaceOnUse" width="15"><rect fill="white" height="15" stroke="gray" width="15" x="0" y="0" /></pattern><pattern height="15" id="id835" patternUnits="userSpaceOnUse" width="15"><rect fill="white" height="15" stroke="gray" width="15" x="0" y="0" /></pattern><pattern height="15" id="id836" patternUnits="userSpaceOnUse" width="15"><rect fill="white" height="15" stroke="gray" width="15" x="0" y="0" /></pattern><pattern height="15" id="id837" patternUnits="userSpaceOnUse" width="15"><rect fill="white" height="15" stroke="gray" width="15" x="0" y="0" /></pattern><pattern height="15" id="id838" patternUnits="userSpaceOnUse" width="15"><rect fill="white" height="15" stroke="gray" width="15" x="0" y="0" /></pattern><pattern height="15" id="id839" patternUnits="userSpaceOnUse" width="15"><rect fill="white" height="15" stroke="gray" width="15" x="0" y="0" /></pattern><pattern height="15" id="id840" patternUnits="userSpaceOnUse" width="15"><rect fill="white" height="15" stroke="gray" width="15" x="0" y="0" /></pattern><pattern height="15" id="id841" patternUnits="userSpaceOnUse" width="15"><rect fill="white" height="15" stroke="gray" width="15" x="0" y="0" /></pattern><pattern height="15" id="id842" patternUnits="userSpaceOnUse" width="15"><rect fill="white" height="15" stroke="gray" width="15" x="0" y="0" /></pattern><pattern height="15" id="id843" patternUnits="userSpaceOnUse" width="15"><rect fill="white" height="15" stroke="gray" width="15" x="0" y="0" /></pattern><pattern height="15" id="id844" patternUnits="userSpaceOnUse" width="15"><rect fill="white" height="15" stroke="gray" width="15" x="0" y="0" /></pattern><pattern height="15" id="id845" patternUnits="userSpaceOnUse" width="15"><rect fill="white" height="15" stroke="gray" width="15" x="0" y="0" /></pattern><pattern height="15" id="id846" patternUnits="userSpaceOnUse" width="15"><rect fill="white" height="15" stroke="gray" width="15" x="0" y="0" /></pattern></defs><rect fill="black" height="750" stroke="black" stroke-width="2" width="750" x="0" y="0" /><g><rect fill="url(#id818) none" height="90" stroke="black" stroke-width="1" width="195" x="15" y="30" /></g><g><rect fill="url(#id819) none" height="105" stroke="black" stroke-width="1" width="135" x="30" y="165" /></g><g><rect fill="url(#id820) none" height="60" stroke="black" stroke-width="1" width="120" x="60" y="300" /></g><g><rect fill="url(#id821) none" height="90" stroke="black" stroke-width="1" width="135" x="255" y="15" /></g><g><rect fill="url(#id822) none" height="105" stroke="black" stroke-width="1" width="150" x="300" y="135" /></g><g><rect fill="url(#id823) none" height="120" stroke="black" stroke-width="1" width="135" x="300" y="270" /></g><g><rect fill="url(#id824) none" height="120" stroke="black" stroke-width="1" width="60" x="495" y="30" /></g><g><rect fill="url(#id825) none" height="105" stroke="black" stroke-width="1" width="90" x="495" y="180" /></g><g><rect fill="url(#id826) none" height="120" stroke="black" stroke-width="1" width="75" x="630" y="210" /></g><g><rect fill="url(#id827) none" height="105" stroke="black" stroke-width="1" width="75" x="30" y="420" /></g><g><rect fill="url(#id828) none" height="180" stroke="black" stroke-width="1" width="60" x="150" y="435" /></g><g><rect fill="url(#id829) none" height="60" stroke="black" stroke-width="1" width="60" x="120" y="660" /></g><g><rect fill="url(#id830) none" height="60" stroke="black" stroke-width="1" width="255" x="285" y="465" /></g><g><rect fill="url(#id831) none" height="150" stroke="black" stroke-width="1" width="225" x="285" y="585" /></g><g><rect fill="url(#id832) none" height="270" stroke="black" stroke-width="1" width="75" x="660" y="450" /></g><g><rect fill="url(#id833) none" height="15" width="60" x="60" y="75" /></g><g><rect fill="url(#id833) none" height="405" width="15" x="60" y="75" /></g><g><rect fill="url(#id834) none" height="15" width="420" x="120" y="90" /></g><g><rect fill="url(#id834) none" height="15" width="15" x="120" y="75" /></g><g><rect fill="url(#id835) none" height="15" width="225" x="120" y="75" /></g><g><rect fill="url(#id835) none" height="15" width="15" x="330" y="60" /></g><g><rect fill="url(#id836) none" height="255" width="15" x="120" y="75" /></g><g><rect fill="url(#id837) none" height="15" width="45" x="90" y="210" /></g><g><rect fill="url(#id837) none" height="135" width="15" x="120" y="75" /></g><g><rect fill="url(#id838) none" height="15" width="45" x="330" y="330" /></g><g><rect fill="url(#id838) none" height="270" width="15" x="330" y="60" /></g><g><rect fill="url(#id839) none" height="15" width="45" x="330" y="60" /></g><g><rect fill="url(#id839) none" height="120" width="15" x="375" y="60" /></g><g><rect fill="url(#id840) none" height="15" width="30" x="525" y="240" /></g><g><rect fill="url(#id840) none" height="150" width="15" x="525" y="90" /></g><g><rect fill="url(#id841) none" height="15" width="120" x="540" y="240" /></g><g><rect fill="url(#id841) none" height="30" width="15" x="660" y="240" /></g><g><rect fill="url(#id842) none" height="15" width="375" x="60" y="495" /></g><g><rect fill="url(#id842) none" height="15" width="15" x="60" y="480" /></g><g><rect fill="url(#id843) none" height="15" width="90" x="60" y="480" /></g><g><rect fill="url(#id843) none" height="210" width="15" x="150" y="480" /></g><g><rect fill="url(#id844) none" height="15" width="120" x="60" y="480" /></g><g><rect fill="url(#id844) none" height="45" width="15" x="180" y="480" /></g><g><rect fill="url(#id845) none" height="15" width="285" x="420" y="585" /></g><g><rect fill="url(#id845) none" height="90" width="15" x="420" y="495" /></g><g><rect fill="url(#id846) none" height="15" width="45" x="390" y="660" /></g><g><rect fill="url(#id846) none" height="165" width="15" x="420" y="495" /></g><rect fill="white" height="30" stroke="blue" width="30" x="705" y="450" /><g transform="rotate(90,720.0,465.0)"><rect fill="white" height="30" stroke="black" width="3.75" x="705.0" y="450" /><rect fill="white" height="30" stroke="black" width="3.75" x="708.75" y="450" /><rect fill="white" height="30" stroke="black" width="3.75" x="712.5" y="450" /><rect fill="white" height="30" stroke="black" width="3.75" x="716.25" y="450" /><rect fill="white" height="30" stroke="black" width="3.75" x="720.0" y="450" /><rect fill="white" height="30" stroke="black" width="3.75" x="723.75" y="450" /><rect fill="white" height="30" stroke="black" width="3.75" x="727.5" y="450" /><rect fill="white" height="30" stroke="black" width="3.75" x="731.25" y="450" /></g><rect fill="white" height="30" stroke="red" width="30" x="255" y="15" /><g><rect fill="white" height="14" stroke="black" width="3.75" x="255.0" y="23" /><rect fill="white" height="16" stroke="black" width="3.75" x="258.75" y="22" /><rect fill="white" height="18" stroke="black" width="3.75" x="262.5" y="21" /><rect fill="white" height="20" stroke="black" width="3.75" x="266.25" y="20" /><rect fill="white" height="22" stroke="black" width="3.75" x="270.0" y="19" /><rect fill="white" height="24" stroke="black" width="3.75" x="273.75" y="18" /><rect fill="white" height="26" stroke="black" width="3.75" x="277.5" y="17" /><rect fill="white" height="28" stroke="black" width="3.75" x="281.25" y="16" /></g><text alignment-baseline="middle" fill="black" font-size="20" text-anchor="middle" x="112.5" y="75.0">1</text><text alignment-baseline="middle" fill="black" font-size="20" text-anchor="middle" x="97.5" y="217.5">2</text><text alignment-baseline="middle" fill="black" font-size="20" text-anchor="middle" x="120.0" y="330.0">3</text><text alignment-baseline="middle" fill="black" font-size="20" text-anchor="middle" x="322.5" y="60.0">4</text><text alignment-baseline="middle" fill="black" font-size="20" text-anchor="middle" x="375.0" y="187.5">5</text><text alignment-baseline="middle" fill="black" font-size="20" text-anchor="middle" x="367.5" y="330.0">6</text><text alignment-baseline="middle" fill="black" font-size="20" text-anchor="middle" x="525.0" y="90.0">7</text><text alignment-baseline="middle" fill="black" font-size="20" text-anchor="middle" x="540.0" y="232.5">8</text><text alignment-baseline="middle" fill="black" font-size="20" text-anchor="middle" x="667.5" y="270.0">9</text><text alignment-baseline="middle" fill="black" font-size="20" text-anchor="middle" x="67.5" y="472.5">10</text><text alignment-baseline="middle" fill="black" font-size="20" text-anchor="middle" x="180.0" y="525.0">11</text><text alignment-baseline="middle" fill="black" font-size="20" text-anchor="middle" x="150.0" y="690.0">12</text><text alignment-baseline="middle" fill="black" font-size="20" text-anchor="middle" x="412.5" y="495.0">13</text><text alignment-baseline="middle" fill="black" font-size="20" text-anchor="middle" x="397.5" y="660.0">14</text><text alignment-baseline="middle" fill="black" font-size="20" text-anchor="middle" x="697.5" y="585.0">15</text></svg>