<?xml version="1.0" encoding="utf-8" ?>
<svg baseProfile="full" height="600px" version="1.1" width="600px" xmlns="http://www.w3.org/2000/svg" xmlns:ev="http://www.w3.org/2001/xml-events" xmlns:xlink="http://www.w3.org/1999/xlink"><defs><pattern height="15" id="id1" patternUnits="userSpaceOnUse" width="15"><rect fill="white" height="15" stroke="gray" width="15" x="0" y="0" /></pattern><pattern height="15" id="id2" patternUnits="userSpaceOnUse" width="15"><rect fill="white" height="15" stroke="gray" width="15" x="0" y="0" /></pattern><pattern height="15" id="id3" patternUnits="userSpaceOnUse" width="15"><rect fill="white" height="15" stroke="gray" width="15" x="0" y="0" /></pattern><pattern height="15" id="id4" patternUnits="userSpaceOnUse" width="15"><rect fill="white" height="15" stroke="gray" width="15" x="0" y="0" /></pattern><pattern height="15" id="id5" patternUnits="userSpaceOnUse" width="15"><rect fill="white" height="15" stroke="gray" width="15" x="0" y="0" /></pattern><pattern height="15" id="id6" patternUnits="userSpaceOnUse" width="15"><rect fill="white" height="15" stroke="gray" width="15" x="0" y="0" /></pattern><pattern height="15" id="id7" patternUnits="userSpaceOnUse" width="15"><rect fill="white" height="15" stroke="gray" width="15" x="0" y="0" /></pattern><pattern height="15" id="id8" patternUnits="userSpaceOnUse" width="15"><rect fill="white" height="15" stroke="gray" width="15" x="0" y="0" /></pattern><pattern height="15" id="id9" patternUnits="userSpaceOnUse" width="15"><rect fill="white" height="15" stroke="gray" width="15" x="0" y="0" /></pattern><pattern height="15" id="id10" patternUnits="userSpaceOnUse" width="15"><rect fill="white" height="15" stroke="gray" width="15" x="0" y="0" /></pattern><pattern height="15" id="id11" patternUnits="userSpaceOnUse" width="15"><rect fill="white" height="15" stroke="gray" width="15" x="0" y="0" /></pattern><pattern height="15" id="id12" patternUnits="userSpaceOnUse" width="15"><rect fill="white" height="15" stroke="gray" width="15" x="0" y="0" /></pattern><pattern height="15" id="id13" patternUnits="userSpaceOnUse" width="15"><rect fill="white" height="15" stroke="gray" width="15" x="0" y="0" /></pattern><pattern height="15" id="id14" patternUnits="userSpaceOnUse" width="15"><rect fill="white" height="15" stroke="gray" width="15" x="0" y="0" /></pattern><pattern height="15" id="id15" patternUnits="userSpaceOnUse" width="15"><rect fill="white" height="15" stroke="gray" width="15" x="0" y="0" /></pattern><pattern height="15" id="id16" patternUnits="userSpaceOnUse" width="15"><rect fill="white" height="15" stroke="gray" width="15" x="0" y="0" /></pattern><pattern height="15" id="id17" patternUnits="userSpaceOnUse" width="15"><rect fill="white" height="15" stroke="gray" width="15" x="0" y="0" /></pattern></defs><rect fill="black" height="600" stroke="black" stroke-width="2" width="600" x="0" y="0" /><g><rect fill="url(#id1) none" height="105" stroke="black" stroke-width="1" width="75" x="60" y="15" /></g><g><rect fill="url(#id2) none" height="120" stroke="black" stroke-width="1" width="180" x="210" y="15" /></g><g><rect fill="url(#id3) none" height="90" stroke="black" stroke-width="1" width="165" x="195" y="195" /></g><g><rect fill="url(#id4) none" height="240" stroke="black" stroke-width="1" width="165" x="420" y="15" /></g><g><rect fill="url(#id5) none" height="105" stroke="black" stroke-width="1" width="210" x="15" y="360" /></g><g><rect fill="url(#id6) none" height="75" stroke="black" stroke-width="1" width="90" x="90" y="510" /></g><g><rect fill="url(#id7) none" height="255" stroke="black" stroke-width="1" width="75" x="255" y="330" /></g><g><rect fill="url(#id8) none" height="75" stroke="black" stroke-width="1" width="120" x="405" y="315" /></g><g><rect fill="url(#id9) none" height="120" stroke="black" stroke-width="1" width="60" x="450" y="465" /></g><g><rect fill="url(#id10) none" height="15" width="45" x="90" y="420" /></g><g><rect fill="url(#id10) none" height="360" width="15" x="90" y="60" /></g><g><rect fill="url(#id11) none" height="15" width="420" x="90" y="60" /></g><g><rect fill="url(#id11) none" height="75" width="15" x="510" y="60" /></g><g><rect fill="url(#id12) none" height="15" width="210" x="90" y="60" /></g><g><rect fill="url(#id12) none" height="15" width="15" x="300" y="60" /></g><g><rect fill="url(#id13) none" height="15" width="45" x="270" y="240" /></g><g><rect fill="url(#id13) none" height="165" width="15" x="300" y="75" /></g><g><rect fill="url(#id14) none" height="15" width="195" x="120" y="450" /></g><g><rect fill="url(#id14) none" height="30" width="15" x="120" y="420" /></g><g><rect fill="url(#id15) none" height="15" width="15" x="120" y="420" /></g><g><rect fill="url(#id15) none" height="120" width="15" x="135" y="420" /></g><g><rect fill="url(#id16) none" height="15" width="180" x="300" y="450" /></g><g><rect fill="url(#id16) none" height="90" width="15" x="465" y="360" /></g><g><rect fill="url(#id17) none" height="15" width="30" x="465" y="525" /></g><g><rect fill="url(#id17) none" height="165" width="15" x="465" y="360" /></g><rect fill="blue" height="15" width="15" x="165" y="570" /><rect fill="red" height="15" width="15" x="15" y="450" /><text alignment-baseline="middle" fill="black" font-size="22.5" text-anchor="middle" x="97.5" y="67.5">1</text><text alignment-baseline="middle" fill="black" font-size="22.5" text-anchor="middle" x="300.0" y="75.0">2</text><text alignment-baseline="middle" fill="black" font-size="22.5" text-anchor="middle" x="277.5" y="240.0">3</text><text alignment-baseline="middle" fill="black" font-size="22.5" text-anchor="middle" x="502.5" y="135.0">4</text><text alignment-baseline="middle" fill="black" font-size="22.5" text-anchor="middle" x="120.0" y="412.5">5</text><text alignment-baseline="middle" fill="black" font-size="22.5" text-anchor="middle" x="135.0" y="547.5">6</text><text alignment-baseline="middle" fill="black" font-size="22.5" text-anchor="middle" x="292.5" y="457.5">7</text><text alignment-baseline="middle" fill="black" font-size="22.5" text-anchor="middle" x="465.0" y="352.5">8</text><text alignment-baseline="middle" fill="black" font-size="22.5" text-anchor="middle" x="480.0" y="525.0">9</text></svg>