<?xml version="1.0" encoding="utf-8" ?>
<svg baseProfile="full" height="800px" version="1.1" width="800px" xmlns="http://www.w3.org/2000/svg" xmlns:ev="http://www.w3.org/2001/xml-events" xmlns:xlink="http://www.w3.org/1999/xlink"><defs><pattern height="20" id="id1" patternUnits="userSpaceOnUse" width="20"><rect fill="white" height="20" stroke="black" width="20" x="0" y="0" /></pattern><pattern height="20" id="id2" patternUnits="userSpaceOnUse" width="20"><rect fill="white" height="20" stroke="black" width="20" x="0" y="0" /></pattern><pattern height="20" id="id3" patternUnits="userSpaceOnUse" width="20"><rect fill="white" height="20" stroke="black" width="20" x="0" y="0" /></pattern><pattern height="20" id="id4" patternUnits="userSpaceOnUse" width="20"><rect fill="white" height="20" stroke="black" width="20" x="0" y="0" /></pattern><pattern height="20" id="id5" patternUnits="userSpaceOnUse" width="20"><rect fill="white" height="20" stroke="black" width="20" x="0" y="0" /></pattern><pattern height="20" id="id6" patternUnits="userSpaceOnUse" width="20"><rect fill="white" height="20" stroke="black" width="20" x="0" y="0" /></pattern><pattern height="20" id="id7" patternUnits="userSpaceOnUse" width="20"><rect fill="white" height="20" stroke="black" width="20" x="0" y="0" /></pattern><pattern height="20" id="id8" patternUnits="userSpaceOnUse" width="20"><rect fill="white" height="20" stroke="black" width="20" x="0" y="0" /></pattern></defs><rect fill="black" height="800" stroke="black" stroke-width="2" width="800" x="0" y="0" /><g><rect fill="white" height="15.0" width="547.0" x="96.0" y="176.0" /></g><g><rect fill="white" height="6.0" width="15.0" x="643.0" y="176.0" /></g><g><rect fill="white" height="15.0" width="144.5" x="96.0" y="483.5" /></g><g><rect fill="white" height="307.5" width="15.0" x="96.0" y="176.0" /></g><g><rect fill="white" height="15.0" width="240.5" x="96.0" y="176.0" /></g><g><rect fill="white" height="48.0" width="15.0" x="321.5" y="128.0" /></g><g><rect fill="white" height="15.0" width="16.5" x="209.0" y="483.5" /></g><g><rect fill="white" height="214.0" width="15.0" x="209.0" y="483.5" /></g><g><rect fill="white" height="15.0" width="142.5" x="515.5" y="633.0" /></g><g><rect fill="white" height="451.0" width="15.0" x="643.0" y="182.0" /></g><g><rect fill="white" height="15.0" width="26.0" x="617.0" y="182.0" /></g><g><rect fill="white" height="195.5" width="15.0" x="617.0" y="182.0" /></g><g><rect fill="white" height="15.0" width="195.0" x="515.5" y="633.0" /></g><g><rect fill="white" height="72.0" width="15.0" x="695.5" y="561.0" /></g><rect fill="url(#id1) none" height="258" width="168" x="12" y="47" /><rect fill="url(#id2) none" height="172" width="153" x="245" y="42" /><rect fill="url(#id3) none" height="169" width="317" x="67" y="399" /><rect fill="url(#id4) none" height="181" width="378" x="20" y="607" /><rect fill="url(#id5) none" height="124" width="198" x="544" y="120" /><rect fill="url(#id6) none" height="179" width="360" x="437" y="288" /><rect fill="url(#id7) none" height="236" width="129" x="451" y="515" /><rect fill="url(#id8) none" height="124" width="203" x="594" y="499" /><rect fill="blue" height="30.0" width="10" x="12" y="256" /></svg>