<?xml version="1.0" encoding="utf-8" ?>
<svg baseProfile="full" height="1000px" version="1.1" width="1000px" xmlns="http://www.w3.org/2000/svg" xmlns:ev="http://www.w3.org/2001/xml-events" xmlns:xlink="http://www.w3.org/1999/xlink"><defs><pattern height="20" id="id58" patternUnits="userSpaceOnUse" width="20"><rect fill="white" height="20" stroke="gray" width="20" x="0" y="0" /></pattern><pattern height="20" id="id59" patternUnits="userSpaceOnUse" width="20"><rect fill="white" height="20" stroke="gray" width="20" x="0" y="0" /></pattern><pattern height="20" id="id60" patternUnits="userSpaceOnUse" width="20"><rect fill="white" height="20" stroke="gray" width="20" x="0" y="0" /></pattern><pattern height="20" id="id61" patternUnits="userSpaceOnUse" width="20"><rect fill="white" height="20" stroke="gray" width="20" x="0" y="0" /></pattern><pattern height="20" id="id62" patternUnits="userSpaceOnUse" width="20"><rect fill="white" height="20" stroke="gray" width="20" x="0" y="0" /></pattern><pattern height="20" id="id63" patternUnits="userSpaceOnUse" width="20"><rect fill="white" height="20" stroke="gray" width="20" x="0" y="0" /></pattern><pattern height="20" id="id64" patternUnits="userSpaceOnUse" width="20"><rect fill="white" height="20" stroke="gray" width="20" x="0" y="0" /></pattern><pattern height="20" id="id65" patternUnits="userSpaceOnUse" width="20"><rect fill="white" height="20" stroke="gray" width="20" x="0" y="0" /></pattern><pattern height="20" id="id66" patternUnits="userSpaceOnUse" width="20"><rect fill="white" height="20" stroke="gray" width="20" x="0" y="0" /></pattern><pattern height="20" id="id67" patternUnits="userSpaceOnUse" width="20"><rect fill="white" height="20" stroke="gray" width="20" x="0" y="0" /></pattern><pattern height="20" id="id68" patternUnits="userSpaceOnUse" width="20"><rect fill="white" height="20" stroke="gray" width="20" x="0" y="0" /></pattern><pattern height="20" id="id69" patternUnits="userSpaceOnUse" width="20"><rect fill="white" height="20" stroke="gray" width="20" x="0" y="0" /></pattern><pattern height="20" id="id70" patternUnits="userSpaceOnUse" width="20"><rect fill="white" height="20" stroke="gray" width="20" x="0" y="0" /></pattern><pattern height="20" id="id71" patternUnits="userSpaceOnUse" width="20"><rect fill="white" height="20" stroke="gray" width="20" x="0" y="0" /></pattern><pattern height="20" id="id72" patternUnits="userSpaceOnUse" width="20"><rect fill="white" height="20" stroke="gray" width="20" x="0" y="0" /></pattern><pattern height="20" id="id73" patternUnits="userSpaceOnUse" width="20"><rect fill="white" height="20" stroke="gray" width="20" x="0" y="0" /></pattern><pattern height="20" id="id74" patternUnits="userSpaceOnUse" width="20"><rect fill="white" height="20" stroke="gray" width="20" x="0" y="0" /></pattern><pattern height="20" id="id75" patternUnits="userSpaceOnUse" width="20"><rect fill="white" height="20" stroke="gray" width="20" x="0" y="0" /></pattern><pattern height="20" id="id76" patternUnits="userSpaceOnUse" width="20"><rect fill="white" height="20" stroke="gray" width="20" x="0" y="0" /></pattern><pattern height="20" id="id77" patternUnits="userSpaceOnUse" width="20"><rect fill="white" height="20" stroke="gray" width="20" x="0" y="0" /></pattern><pattern height="20" id="id78" patternUnits="userSpaceOnUse" width="20"><rect fill="white" height="20" stroke="gray" width="20" x="0" y="0" /></pattern><pattern height="20" id="id79" patternUnits="userSpaceOnUse" width="20"><rect fill="white" height="20" stroke="gray" width="20" x="0" y="0" /></pattern><pattern height="20" id="id80" patternUnits="userSpaceOnUse" width="20"><rect fill="white" height="20" stroke="gray" width="20" x="0" y="0" /></pattern><pattern height="20" id="id81" patternUnits="userSpaceOnUse" width="20"><rect fill="white" height="20" stroke="gray" width="20" x="0" y="0" /></pattern><pattern height="20" id="id82" patternUnits="userSpaceOnUse" width="20"><rect fill="white" height="20" stroke="gray" width="20" x="0" y="0" /></pattern></defs><rect fill="black" height="1000" stroke="black" stroke-width="2" width="1000" x="0" y="0" /><g><rect fill="url(#id58) none" height="380" stroke="black" stroke-width="1" width="240" x="20" y="80" /></g><g><rect fill="url(#id59) none" height="200" stroke="black" stroke-width="1" width="200" x="440" y="60" /></g><g><rect fill="url(#id60) none" height="140" stroke="black" stroke-width="1" width="140" x="540" y="300" /></g><g><rect fill="url(#id61) none" height="420" stroke="black" stroke-width="1" width="240" x="740" y="20" /></g><g><rect fill="url(#id62) none" height="120" stroke="black" stroke-width="1" width="100" x="40" y="600" /></g><g><rect fill="url(#id63) none" height="100" stroke="black" stroke-width="1" width="100" x="220" y="500" /></g><g><rect fill="url(#id64) none" height="160" stroke="black" stroke-width="1" width="240" x="40" y="820" /></g><g><rect fill="url(#id65) none" height="120" stroke="black" stroke-width="1" width="140" x="420" y="500" /></g><g><rect fill="url(#id66) none" height="80" stroke="black" stroke-width="1" width="100" x="440" y="680" /></g><g><rect fill="url(#id67) none" height="80" stroke="black" stroke-width="1" width="120" x="460" y="840" /></g><g><rect fill="url(#id68) none" height="80" stroke="black" stroke-width="1" width="220" x="760" y="500" /></g><g><rect fill="url(#id69) none" height="120" stroke="black" stroke-width="1" width="280" x="680" y="660" /></g><g><rect fill="url(#id70) none" height="140" stroke="black" stroke-width="1" width="140" x="780" y="840" /></g><g><rect fill="url(#id71) none" height="20" width="60" x="80" y="280" /></g><g><rect fill="url(#id71) none" height="380" width="20" x="80" y="280" /></g><g><rect fill="url(#id72) none" height="20" width="740" x="140" y="280" /></g><g><rect fill="url(#id72) none" height="40" width="20" x="860" y="240" /></g><g><rect fill="url(#id73) none" height="20" width="420" x="140" y="280" /></g><g><rect fill="url(#id73) none" height="120" width="20" x="540" y="160" /></g><g><rect fill="url(#id74) none" height="20" width="80" x="540" y="360" /></g><g><rect fill="url(#id74) none" height="200" width="20" x="540" y="160" /></g><g><rect fill="url(#id75) none" height="20" width="800" x="80" y="540" /></g><g><rect fill="url(#id75) none" height="120" width="20" x="80" y="540" /></g><g><rect fill="url(#id76) none" height="20" width="400" x="80" y="560" /></g><g><rect fill="url(#id76) none" height="100" width="20" x="80" y="560" /></g><g><rect fill="url(#id77) none" height="20" width="80" x="80" y="660" /></g><g><rect fill="url(#id77) none" height="240" width="20" x="160" y="660" /></g><g><rect fill="url(#id78) none" height="20" width="200" x="80" y="560" /></g><g><rect fill="url(#id78) none" height="100" width="20" x="80" y="560" /></g><g><rect fill="url(#id79) none" height="160" width="20" x="480" y="560" /></g><g><rect fill="url(#id80) none" height="20" width="60" x="480" y="880" /></g><g><rect fill="url(#id80) none" height="160" width="20" x="480" y="720" /></g><g><rect fill="url(#id81) none" height="20" width="40" x="840" y="540" /></g><g><rect fill="url(#id81) none" height="380" width="20" x="840" y="540" /></g><g><rect fill="url(#id82) none" height="20" width="60" x="820" y="540" /></g><g><rect fill="url(#id82) none" height="180" width="20" x="820" y="540" /></g><text alignment-baseline="middle" fill="black" font-size="20" text-anchor="middle" x="140.0" y="270.0">1</text><text alignment-baseline="middle" fill="black" font-size="20" text-anchor="middle" x="540.0" y="160.0">2</text><text alignment-baseline="middle" fill="black" font-size="20" text-anchor="middle" x="610.0" y="370.0">3</text><text alignment-baseline="middle" fill="black" font-size="20" text-anchor="middle" x="860.0" y="230.0">4</text><text alignment-baseline="middle" fill="black" font-size="20" text-anchor="middle" x="90.0" y="660.0">5</text><text alignment-baseline="middle" fill="black" font-size="20" text-anchor="middle" x="270.0" y="550.0">6</text><text alignment-baseline="middle" fill="black" font-size="20" text-anchor="middle" x="160.0" y="900.0">7</text><text alignment-baseline="middle" fill="black" font-size="20" text-anchor="middle" x="490.0" y="560.0">8</text><text alignment-baseline="middle" fill="black" font-size="20" text-anchor="middle" x="490.0" y="720.0">9</text><text alignment-baseline="middle" fill="black" font-size="20" text-anchor="middle" x="520.0" y="880.0">10</text><text alignment-baseline="middle" fill="black" font-size="20" text-anchor="middle" x="870.0" y="540.0">11</text><text alignment-baseline="middle" fill="black" font-size="20" text-anchor="middle" x="820.0" y="720.0">12</text><text alignment-baseline="middle" fill="black" font-size="20" text-anchor="middle" x="850.0" y="910.0">13</text><rect fill="blue" height="40" width="20" x="560" y="840" /><rect fill="red" height="20" width="20" x="220" y="960" /></svg>