<?xml version="1.0" encoding="utf-8" ?>
<svg baseProfile="full" height="600px" version="1.1" width="600px" xmlns="http://www.w3.org/2000/svg" xmlns:ev="http://www.w3.org/2001/xml-events" xmlns:xlink="http://www.w3.org/1999/xlink"><defs><pattern height="15" id="id16" patternUnits="userSpaceOnUse" width="15"><rect fill="white" height="15" stroke="gray" width="15" x="0" y="0" /></pattern><pattern height="15" id="id17" patternUnits="userSpaceOnUse" width="15"><rect fill="white" height="15" stroke="gray" width="15" x="0" y="0" /></pattern><pattern height="15" id="id18" patternUnits="userSpaceOnUse" width="15"><rect fill="white" height="15" stroke="gray" width="15" x="0" y="0" /></pattern><pattern height="15" id="id19" patternUnits="userSpaceOnUse" width="15"><rect fill="white" height="15" stroke="gray" width="15" x="0" y="0" /></pattern><pattern height="15" id="id20" patternUnits="userSpaceOnUse" width="15"><rect fill="white" height="15" stroke="gray" width="15" x="0" y="0" /></pattern><pattern height="15" id="id21" patternUnits="userSpaceOnUse" width="15"><rect fill="white" height="15" stroke="gray" width="15" x="0" y="0" /></pattern><pattern height="15" id="id22" patternUnits="userSpaceOnUse" width="15"><rect fill="white" height="15" stroke="gray" width="15" x="0" y="0" /></pattern><pattern height="15" id="id23" patternUnits="userSpaceOnUse" width="15"><rect fill="white" height="15" stroke="gray" width="15" x="0" y="0" /></pattern><pattern height="15" id="id24" patternUnits="userSpaceOnUse" width="15"><rect fill="white" height="15" stroke="gray" width="15" x="0" y="0" /></pattern><pattern height="15" id="id25" patternUnits="userSpaceOnUse" width="15"><rect fill="white" height="15" stroke="gray" width="15" x="0" y="0" /></pattern><pattern height="15" id="id26" patternUnits="userSpaceOnUse" width="15"><rect fill="white" height="15" stroke="gray" width="15" x="0" y="0" /></pattern><pattern height="15" id="id27" patternUnits="userSpaceOnUse" width="15"><rect fill="white" height="15" stroke="gray" width="15" x="0" y="0" /></pattern><pattern height="15" id="id28" patternUnits="userSpaceOnUse" width="15"><rect fill="white" height="15" stroke="gray" width="15" x="0" y="0" /></pattern><pattern height="15" id="id29" patternUnits="userSpaceOnUse" width="15"><rect fill="white" height="15" stroke="gray" width="15" x="0" y="0" /></pattern><pattern height="15" id="id30" patternUnits="userSpaceOnUse" width="15"><rect fill="white" height="15" stroke="gray" width="15" x="0" y="0" /></pattern></defs><rect fill="black" height="600" stroke="black" stroke-width="2" width="600" x="0" y="0" /><g><rect fill="url(#id16) none" height="165" stroke="black" stroke-width="1" width="105" x="15" y="105" /></g><g><rect fill="url(#id17) none" height="90" stroke="black" stroke-width="1" width="120" x="165" y="30" /></g><g><rect fill="url(#id18) none" height="75" stroke="black" stroke-width="1" width="60" x="270" y="195" /></g><g><rect fill="url(#id19) none" height="150" stroke="black" stroke-width="1" width="135" x="450" y="120" /></g><g><rect fill="url(#id20) none" height="120" stroke="black" stroke-width="1" width="150" x="45" y="300" /></g><g><rect fill="url(#id21) none" height="90" stroke="black" stroke-width="1" width="135" x="135" y="480" /></g><g><rect fill="url(#id22) none" height="105" stroke="black" stroke-width="1" width="135" x="300" y="300" /></g><g><rect fill="url(#id23) none" height="90" stroke="black" stroke-width="1" width="270" x="315" y="480" /></g><g><rect fill="url(#id24) none" height="15" width="60" x="60" y="180" /></g><g><rect fill="url(#id24) none" height="180" width="15" x="120" y="180" /></g><g><rect fill="url(#id25) none" height="15" width="465" x="60" y="195" /></g><g><rect fill="url(#id25) none" height="15" width="15" x="60" y="180" /></g><g><rect fill="url(#id26) none" height="15" width="165" x="60" y="75" /></g><g><rect fill="url(#id26) none" height="105" width="15" x="60" y="75" /></g><g><rect fill="url(#id27) none" height="15" width="90" x="225" y="240" /></g><g><rect fill="url(#id27) none" height="165" width="15" x="225" y="75" /></g><g><rect fill="url(#id28) none" height="15" width="240" x="120" y="360" /></g><g><rect fill="url(#id29) none" height="15" width="105" x="120" y="525" /></g><g><rect fill="url(#id29) none" height="165" width="15" x="120" y="360" /></g><g><rect fill="url(#id30) none" height="15" width="90" x="360" y="360" /></g><g><rect fill="url(#id30) none" height="165" width="15" x="450" y="360" /></g><rect fill="blue" height="15" width="15" x="15" y="150" /><rect fill="red" height="15" width="15" x="570" y="225" /><text alignment-baseline="middle" fill="black" font-size="22.5" text-anchor="middle" x="67.5" y="187.5">1</text><text alignment-baseline="middle" fill="black" font-size="22.5" text-anchor="middle" x="225.0" y="75.0">2</text><text alignment-baseline="middle" fill="black" font-size="22.5" text-anchor="middle" x="300.0" y="232.5">3</text><text alignment-baseline="middle" fill="black" font-size="22.5" text-anchor="middle" x="517.5" y="195.0">4</text><text alignment-baseline="middle" fill="black" font-size="22.5" text-anchor="middle" x="120.0" y="360.0">5</text><text alignment-baseline="middle" fill="black" font-size="22.5" text-anchor="middle" x="202.5" y="525.0">6</text><text alignment-baseline="middle" fill="black" font-size="22.5" text-anchor="middle" x="367.5" y="352.5">7</text><text alignment-baseline="middle" fill="black" font-size="22.5" text-anchor="middle" x="450.0" y="525.0">8</text></svg>