<?xml version="1.0" encoding="utf-8" ?>
<svg baseProfile="full" height="750px" version="1.1" width="750px" xmlns="http://www.w3.org/2000/svg" xmlns:ev="http://www.w3.org/2001/xml-events" xmlns:xlink="http://www.w3.org/1999/xlink"><defs><pattern height="15" id="id847" patternUnits="userSpaceOnUse" width="15"><rect fill="white" height="15" stroke="gray" width="15" x="0" y="0" /></pattern><pattern height="15" id="id848" patternUnits="userSpaceOnUse" width="15"><rect fill="white" height="15" stroke="gray" width="15" x="0" y="0" /></pattern><pattern height="15" id="id849" patternUnits="userSpaceOnUse" width="15"><rect fill="white" height="15" stroke="gray" width="15" x="0" y="0" /></pattern><pattern height="15" id="id850" patternUnits="userSpaceOnUse" width="15"><rect fill="white" height="15" stroke="gray" width="15" x="0" y="0" /></pattern><pattern height="15" id="id851" patternUnits="userSpaceOnUse" width="15"><rect fill="white" height="15" stroke="gray" width="15" x="0" y="0" /></pattern><pattern height="15" id="id852" patternUnits="userSpaceOnUse" width="15"><rect fill="white" height="15" stroke="gray" width="15" x="0" y="0" /></pattern><pattern height="15" id="id853" patternUnits="userSpaceOnUse" width="15"><rect fill="white" height="15" stroke="gray" width="15" x="0" y="0" /></pattern><pattern height="15" id="id854" patternUnits="userSpaceOnUse" width="15"><rect fill="white" height="15" stroke="gray" width="15" x="0" y="0" /></pattern><pattern height="15" id="id855" patternUnits="userSpaceOnUse" width="15"><rect fill="white" height="15" stroke="gray" width="15" x="0" y="0" /></pattern><pattern height="15" id="id856" patternUnits="userSpaceOnUse" width="15"><rect fill="white" height="15" stroke="gray" width="15" x="0" y="0" /></pattern><pattern height="15" id="id857" patternUnits="userSpaceOnUse" width="15"><rect fill="white" height="15" stroke="gray" width="15" x="0" y="0" /></pattern><pattern height="15" id="id858" patternUnits="userSpaceOnUse" width="15"><rect fill="white" height="15" stroke="gray" width="15" x="0" y="0" /></pattern><pattern height="15" id="id859" patternUnits="userSpaceOnUse" width="15"><rect fill="white" height="15" stroke="gray" width="15" x="0" y="0" /></pattern><pattern height="15" id="id860" patternUnits="userSpaceOnUse" width="15"><rect fill="white" height="15" stroke="gray" width="15" x="0" y="0" /></pattern><pattern height="15" id="id861" patternUnits="userSpaceOnUse" width="15"><rect fill="white" height="15" stroke="gray" width="15" x="0" y="0" /></pattern><pattern height="15" id="id862" patternUnits="userSpaceOnUse" width="15"><rect fill="white" height="15" stroke="gray" width="15" x="0" y="0" /></pattern><pattern height="15" id="id863" patternUnits="userSpaceOnUse" width="15"><rect fill="white" height="15" stroke="gray" width="15" x="0" y="0" /></pattern><pattern height="15" id="id864" patternUnits="userSpaceOnUse" width="15"><rect fill="white" height="15" stroke="gray" width="15" x="0" y="0" /></pattern><pattern height="15" id="id865" patternUnits="userSpaceOnUse" width="15"><rect fill="white" height="15" stroke="gray" width="15" x="0" y="0" /></pattern><pattern height="15" id="id866" patternUnits="userSpaceOnUse" width="15"><rect fill="white" height="15" stroke="gray" width="15" x="0" y="0" /></pattern><pattern height="15" id="id867" patternUnits="userSpaceOnUse" width="15"><rect fill="white" height="15" stroke="gray" width="15" x="0" y="0" /></pattern><pattern height="15" id="id868" patternUnits="userSpaceOnUse" width="15"><rect fill="white" height="15" stroke="gray" width="15" x="0" y="0" /></pattern><pattern height="15" id="id869" patternUnits="userSpaceOnUse" width="15"><rect fill="white" height="15" stroke="gray" width="15" x="0" y="0" /></pattern></defs><rect fill="black" height="750" stroke="black" stroke-width="2" width="750" x="0" y="0" /><g><rect fill="url(#id847) none" height="75" stroke="black" stroke-width="1" width="165" x="15" y="15" /></g><g><rect fill="url(#id848) none" height="90" stroke="black" stroke-width="1" width="195" x="15" y="180" /></g><g><rect fill="url(#id849) none" height="180" stroke="black" stroke-width="1" width="60" x="240" y="60" /></g><g><rect fill="url(#id850) none" height="135" stroke="black" stroke-width="1" width="240" x="60" y="345" /></g><g><rect fill="url(#id851) none" height="75" stroke="black" stroke-width="1" width="90" x="60" y="525" /></g><g><rect fill="url(#id852) none" height="60" stroke="black" stroke-width="1" width="135" x="90" y="660" /></g><g><rect fill="url(#id853) none" height="60" stroke="black" stroke-width="1" width="90" x="255" y="525" /></g><g><rect fill="url(#id854) none" height="75" stroke="black" stroke-width="1" width="180" x="465" y="30" /></g><g><rect fill="url(#id855) none" height="210" stroke="black" stroke-width="1" width="105" x="405" y="195" /></g><g><rect fill="url(#id856) none" height="135" stroke="black" stroke-width="1" width="60" x="555" y="210" /></g><g><rect fill="url(#id857) none" height="90" stroke="black" stroke-width="1" width="120" x="405" y="480" /></g><g><rect fill="url(#id858) none" height="135" stroke="black" stroke-width="1" width="75" x="615" y="600" /></g><g><rect fill="url(#id859) none" height="15" width="465" x="90" y="60" /></g><g><rect fill="url(#id860) none" height="15" width="90" x="90" y="60" /></g><g><rect fill="url(#id860) none" height="360" width="15" x="180" y="60" /></g><g><rect fill="url(#id861) none" height="15" width="180" x="90" y="60" /></g><g><rect fill="url(#id861) none" height="90" width="15" x="270" y="60" /></g><g><rect fill="url(#id862) none" height="15" width="45" x="90" y="225" /></g><g><rect fill="url(#id862) none" height="165" width="15" x="90" y="60" /></g><g><rect fill="url(#id863) none" height="15" width="75" x="105" y="420" /></g><g><rect fill="url(#id863) none" height="150" width="15" x="105" y="420" /></g><g><rect fill="url(#id864) none" height="15" width="195" x="105" y="555" /></g><g><rect fill="url(#id864) none" height="15" width="15" x="105" y="555" /></g><g><rect fill="url(#id865) none" height="15" width="45" x="105" y="570" /></g><g><rect fill="url(#id865) none" height="120" width="15" x="150" y="570" /></g><g><rect fill="url(#id866) none" height="15" width="105" x="450" y="60" /></g><g><rect fill="url(#id866) none" height="240" width="15" x="450" y="60" /></g><g><rect fill="url(#id867) none" height="15" width="30" x="450" y="525" /></g><g><rect fill="url(#id867) none" height="225" width="15" x="450" y="300" /></g><g><rect fill="url(#id868) none" height="15" width="150" x="450" y="300" /></g><g><rect fill="url(#id868) none" height="30" width="15" x="585" y="270" /></g><g><rect fill="url(#id869) none" height="15" width="210" x="465" y="660" /></g><g><rect fill="url(#id869) none" height="135" width="15" x="465" y="525" /></g><rect fill="white" height="30" stroke="blue" width="30" x="240" y="210" /><g><rect fill="white" height="30" stroke="black" width="3.75" x="240.0" y="210" /><rect fill="white" height="30" stroke="black" width="3.75" x="243.75" y="210" /><rect fill="white" height="30" stroke="black" width="3.75" x="247.5" y="210" /><rect fill="white" height="30" stroke="black" width="3.75" x="251.25" y="210" /><rect fill="white" height="30" stroke="black" width="3.75" x="255.0" y="210" /><rect fill="white" height="30" stroke="black" width="3.75" x="258.75" y="210" /><rect fill="white" height="30" stroke="black" width="3.75" x="262.5" y="210" /><rect fill="white" height="30" stroke="black" width="3.75" x="266.25" y="210" /></g><rect fill="red" height="15" width="15" x="675" y="660" /><text alignment-baseline="middle" fill="black" font-size="20" text-anchor="middle" x="97.5" y="52.5">1</text><text alignment-baseline="middle" fill="black" font-size="20" text-anchor="middle" x="112.5" y="225.0">2</text><text alignment-baseline="middle" fill="black" font-size="20" text-anchor="middle" x="270.0" y="150.0">3</text><text alignment-baseline="middle" fill="black" font-size="20" text-anchor="middle" x="180.0" y="412.5">4</text><text alignment-baseline="middle" fill="black" font-size="20" text-anchor="middle" x="105.0" y="562.5">5</text><text alignment-baseline="middle" fill="black" font-size="20" text-anchor="middle" x="157.5" y="690.0">6</text><text alignment-baseline="middle" fill="black" font-size="20" text-anchor="middle" x="300.0" y="555.0">7</text><text alignment-baseline="middle" fill="black" font-size="20" text-anchor="middle" x="555.0" y="67.5">8</text><text alignment-baseline="middle" fill="black" font-size="20" text-anchor="middle" x="457.5" y="300.0">9</text><text alignment-baseline="middle" fill="black" font-size="20" text-anchor="middle" x="585.0" y="277.5">10</text><text alignment-baseline="middle" fill="black" font-size="20" text-anchor="middle" x="465.0" y="525.0">11</text><text alignment-baseline="middle" fill="black" font-size="20" text-anchor="middle" x="652.5" y="667.5">12</text></svg>