<?xml version="1.0" encoding="utf-8" ?>
<svg baseProfile="full" height="1000px" version="1.1" width="1000px" xmlns="http://www.w3.org/2000/svg" xmlns:ev="http://www.w3.org/2001/xml-events" xmlns:xlink="http://www.w3.org/1999/xlink"><defs><pattern height="20" id="id151" patternUnits="userSpaceOnUse" width="20"><rect fill="white" height="20" stroke="gray" width="20" x="0" y="0" /></pattern><pattern height="20" id="id152" patternUnits="userSpaceOnUse" width="20"><rect fill="white" height="20" stroke="gray" width="20" x="0" y="0" /></pattern><pattern height="20" id="id153" patternUnits="userSpaceOnUse" width="20"><rect fill="white" height="20" stroke="gray" width="20" x="0" y="0" /></pattern><pattern height="20" id="id154" patternUnits="userSpaceOnUse" width="20"><rect fill="white" height="20" stroke="gray" width="20" x="0" y="0" /></pattern><pattern height="20" id="id155" patternUnits="userSpaceOnUse" width="20"><rect fill="white" height="20" stroke="gray" width="20" x="0" y="0" /></pattern><pattern height="20" id="id156" patternUnits="userSpaceOnUse" width="20"><rect fill="white" height="20" stroke="gray" width="20" x="0" y="0" /></pattern><pattern height="20" id="id157" patternUnits="userSpaceOnUse" width="20"><rect fill="white" height="20" stroke="gray" width="20" x="0" y="0" /></pattern><pattern height="20" id="id158" patternUnits="userSpaceOnUse" width="20"><rect fill="white" height="20" stroke="gray" width="20" x="0" y="0" /></pattern><pattern height="20" id="id159" patternUnits="userSpaceOnUse" width="20"><rect fill="white" height="20" stroke="gray" width="20" x="0" y="0" /></pattern><pattern height="20" id="id160" patternUnits="userSpaceOnUse" width="20"><rect fill="white" height="20" stroke="gray" width="20" x="0" y="0" /></pattern><pattern height="20" id="id161" patternUnits="userSpaceOnUse" width="20"><rect fill="white" height="20" stroke="gray" width="20" x="0" y="0" /></pattern><pattern height="20" id="id162" patternUnits="userSpaceOnUse" width="20"><rect fill="white" height="20" stroke="gray" width="20" x="0" y="0" /></pattern><pattern height="20" id="id163" patternUnits="userSpaceOnUse" width="20"><rect fill="white" height="20" stroke="gray" width="20" x="0" y="0" /></pattern><pattern height="20" id="id164" patternUnits="userSpaceOnUse" width="20"><rect fill="white" height="20" stroke="gray" width="20" x="0" y="0" /></pattern><pattern height="20" id="id165" patternUnits="userSpaceOnUse" width="20"><rect fill="white" height="20" stroke="gray" width="20" x="0" y="0" /></pattern></defs><rect fill="black" height="1000" stroke="black" stroke-width="2" width="1000" x="0" y="0" /><g><rect fill="url(#id151) none" height="140" stroke="black" stroke-width="1" width="100" x="200" y="80" /></g><g><rect fill="url(#id152) none" height="200" stroke="black" stroke-width="1" width="260" x="200" y="300" /></g><g><rect fill="url(#id153) none" height="180" stroke="black" stroke-width="1" width="280" x="200" y="560" /></g><g><rect fill="url(#id154) none" height="100" stroke="black" stroke-width="1" width="200" x="220" y="840" /></g><g><rect fill="url(#id155) none" height="120" stroke="black" stroke-width="1" width="100" x="660" y="20" /></g><g><rect fill="url(#id156) none" height="140" stroke="black" stroke-width="1" width="120" x="840" y="240" /></g><g><rect fill="url(#id157) none" height="80" stroke="black" stroke-width="1" width="420" x="560" y="520" /></g><g><rect fill="url(#id158) none" height="200" stroke="black" stroke-width="1" width="140" x="780" y="740" /></g><g><rect fill="url(#id159) none" height="20" width="500" x="240" y="160" /></g><g><rect fill="url(#id159) none" height="80" width="20" x="720" y="80" /></g><g><rect fill="url(#id160) none" height="20" width="100" x="240" y="400" /></g><g><rect fill="url(#id160) none" height="240" width="20" x="240" y="160" /></g><g><rect fill="url(#id161) none" height="20" width="40" x="320" y="640" /></g><g><rect fill="url(#id161) none" height="240" width="20" x="320" y="400" /></g><g><rect fill="url(#id162) none" height="20" width="20" x="320" y="640" /></g><g><rect fill="url(#id162) none" height="240" width="20" x="320" y="640" /></g><g><rect fill="url(#id163) none" height="20" width="140" x="720" y="840" /></g><g><rect fill="url(#id163) none" height="760" width="20" x="720" y="80" /></g><g><rect fill="url(#id164) none" height="20" width="200" x="720" y="320" /></g><g><rect fill="url(#id164) none" height="240" width="20" x="720" y="80" /></g><g><rect fill="url(#id165) none" height="20" width="160" x="760" y="560" /></g><g><rect fill="url(#id165) none" height="240" width="20" x="900" y="320" /></g><rect fill="white" height="40" stroke="blue" width="40" x="720" y="20" /><g transform="rotate(90,740.0,40.0)"><rect fill="white" height="40" stroke="black" width="5.0" x="720.0" y="20" /><rect fill="white" height="40" stroke="black" width="5.0" x="725.0" y="20" /><rect fill="white" height="40" stroke="black" width="5.0" x="730.0" y="20" /><rect fill="white" height="40" stroke="black" width="5.0" x="735.0" y="20" /><rect fill="white" height="40" stroke="black" width="5.0" x="740.0" y="20" /><rect fill="white" height="40" stroke="black" width="5.0" x="745.0" y="20" /><rect fill="white" height="40" stroke="black" width="5.0" x="750.0" y="20" /><rect fill="white" height="40" stroke="black" width="5.0" x="755.0" y="20" /></g><rect fill="red" height="20" width="20" x="960" y="580" /><text alignment-baseline="middle" fill="black" font-size="20" text-anchor="middle" x="250.0" y="150.0">1</text><text alignment-baseline="middle" fill="black" font-size="20" text-anchor="middle" x="330.0" y="400.0">2</text><text alignment-baseline="middle" fill="black" font-size="20" text-anchor="middle" x="340.0" y="650.0">3</text><text alignment-baseline="middle" fill="black" font-size="20" text-anchor="middle" x="320.0" y="890.0">4</text><text alignment-baseline="middle" fill="black" font-size="20" text-anchor="middle" x="710.0" y="80.0">5</text><text alignment-baseline="middle" fill="black" font-size="20" text-anchor="middle" x="900.0" y="310.0">6</text><text alignment-baseline="middle" fill="black" font-size="20" text-anchor="middle" x="770.0" y="560.0">7</text><text alignment-baseline="middle" fill="black" font-size="20" text-anchor="middle" x="850.0" y="840.0">8</text></svg>