<?xml version="1.0" encoding="utf-8" ?>
<svg baseProfile="full" height="600px" version="1.1" width="600px" xmlns="http://www.w3.org/2000/svg" xmlns:ev="http://www.w3.org/2001/xml-events" xmlns:xlink="http://www.w3.org/1999/xlink"><defs><pattern height="15" id="id1" patternUnits="userSpaceOnUse" width="15"><rect fill="white" height="15" stroke="gray" width="15" x="0" y="0" /></pattern><pattern height="15" id="id2" patternUnits="userSpaceOnUse" width="15"><rect fill="white" height="15" stroke="gray" width="15" x="0" y="0" /></pattern><pattern height="15" id="id3" patternUnits="userSpaceOnUse" width="15"><rect fill="white" height="15" stroke="gray" width="15" x="0" y="0" /></pattern><pattern height="15" id="id4" patternUnits="userSpaceOnUse" width="15"><rect fill="white" height="15" stroke="gray" width="15" x="0" y="0" /></pattern><pattern height="15" id="id5" patternUnits="userSpaceOnUse" width="15"><rect fill="white" height="15" stroke="gray" width="15" x="0" y="0" /></pattern><pattern height="15" id="id6" patternUnits="userSpaceOnUse" width="15"><rect fill="white" height="15" stroke="gray" width="15" x="0" y="0" /></pattern><pattern height="15" id="id7" patternUnits="userSpaceOnUse" width="15"><rect fill="white" height="15" stroke="gray" width="15" x="0" y="0" /></pattern><pattern height="15" id="id8" patternUnits="userSpaceOnUse" width="15"><rect fill="white" height="15" stroke="gray" width="15" x="0" y="0" /></pattern><pattern height="15" id="id9" patternUnits="userSpaceOnUse" width="15"><rect fill="white" height="15" stroke="gray" width="15" x="0" y="0" /></pattern><pattern height="15" id="id10" patternUnits="userSpaceOnUse" width="15"><rect fill="white" height="15" stroke="gray" width="15" x="0" y="0" /></pattern><pattern height="15" id="id11" patternUnits="userSpaceOnUse" width="15"><rect fill="white" height="15" stroke="gray" width="15" x="0" y="0" /></pattern><pattern height="15" id="id12" patternUnits="userSpaceOnUse" width="15"><rect fill="white" height="15" stroke="gray" width="15" x="0" y="0" /></pattern><pattern height="15" id="id13" patternUnits="userSpaceOnUse" width="15"><rect fill="white" height="15" stroke="gray" width="15" x="0" y="0" /></pattern><pattern height="15" id="id14" patternUnits="userSpaceOnUse" width="15"><rect fill="white" height="15" stroke="gray" width="15" x="0" y="0" /></pattern><pattern height="15" id="id15" patternUnits="userSpaceOnUse" width="15"><rect fill="white" height="15" stroke="gray" width="15" x="0" y="0" /></pattern></defs><rect fill="black" height="600" stroke="black" stroke-width="2" width="600" x="0" y="0" /><g><rect fill="url(#id1) none" height="180" stroke="black" stroke-width="1" width="75" x="45" y="45" /></g><g><rect fill="url(#id2) none" height="135" stroke="black" stroke-width="1" width="60" x="165" y="120" /></g><g><rect fill="url(#id3) none" height="90" stroke="black" stroke-width="1" width="60" x="300" y="45" /></g><g><rect fill="url(#id4) none" height="165" stroke="black" stroke-width="1" width="90" x="495" y="45" /></g><g><rect fill="url(#id5) none" height="75" stroke="black" stroke-width="1" width="135" x="60" y="300" /></g><g><rect fill="url(#id6) none" height="150" stroke="black" stroke-width="1" width="195" x="15" y="435" /></g><g><rect fill="url(#id7) none" height="240" stroke="black" stroke-width="1" width="75" x="240" y="315" /></g><g><rect fill="url(#id8) none" height="180" stroke="black" stroke-width="1" width="165" x="405" y="315" /></g><g><rect fill="url(#id9) none" height="15" width="45" x="90" y="330" /></g><g><rect fill="url(#id9) none" height="195" width="15" x="90" y="135" /></g><g><rect fill="url(#id10) none" height="15" width="255" x="90" y="135" /></g><g><rect fill="url(#id10) none" height="45" width="15" x="330" y="90" /></g><g><rect fill="url(#id11) none" height="15" width="120" x="90" y="180" /></g><g><rect fill="url(#id11) none" height="45" width="15" x="90" y="135" /></g><g><rect fill="url(#id12) none" height="15" width="210" x="330" y="90" /></g><g><rect fill="url(#id12) none" height="30" width="15" x="540" y="90" /></g><g><rect fill="url(#id13) none" height="15" width="150" x="120" y="330" /></g><g><rect fill="url(#id13) none" height="105" width="15" x="270" y="330" /></g><g><rect fill="url(#id14) none" height="180" width="15" x="120" y="330" /></g><g><rect fill="url(#id15) none" height="15" width="225" x="270" y="435" /></g><g><rect fill="url(#id15) none" height="30" width="15" x="480" y="405" /></g><rect fill="blue" height="15" width="15" x="45" y="570" /><rect fill="red" height="15" width="15" x="45" y="75" /><text alignment-baseline="middle" fill="black" font-size="20" text-anchor="middle" x="82.5" y="135.0">1</text><text alignment-baseline="middle" fill="black" font-size="20" text-anchor="middle" x="195.0" y="187.5">2</text><text alignment-baseline="middle" fill="black" font-size="20" text-anchor="middle" x="330.0" y="90.0">3</text><text alignment-baseline="middle" fill="black" font-size="20" text-anchor="middle" x="540.0" y="127.5">4</text><text alignment-baseline="middle" fill="black" font-size="20" text-anchor="middle" x="127.5" y="337.5">5</text><text alignment-baseline="middle" fill="black" font-size="20" text-anchor="middle" x="112.5" y="510.0">6</text><text alignment-baseline="middle" fill="black" font-size="20" text-anchor="middle" x="277.5" y="435.0">7</text><text alignment-baseline="middle" fill="black" font-size="20" text-anchor="middle" x="487.5" y="405.0">8</text></svg>