<?xml version="1.0" encoding="utf-8" ?>
<svg baseProfile="full" height="600px" version="1.1" width="600px" xmlns="http://www.w3.org/2000/svg" xmlns:ev="http://www.w3.org/2001/xml-events" xmlns:xlink="http://www.w3.org/1999/xlink"><defs><pattern height="15" id="id1" patternUnits="userSpaceOnUse" width="15"><rect fill="white" height="15" stroke="gray" width="15" x="0" y="0" /></pattern><pattern height="15" id="id2" patternUnits="userSpaceOnUse" width="15"><rect fill="white" height="15" stroke="gray" width="15" x="0" y="0" /></pattern><pattern height="15" id="id3" patternUnits="userSpaceOnUse" width="15"><rect fill="white" height="15" stroke="gray" width="15" x="0" y="0" /></pattern><pattern height="15" id="id4" patternUnits="userSpaceOnUse" width="15"><rect fill="white" height="15" stroke="gray" width="15" x="0" y="0" /></pattern><pattern height="15" id="id5" patternUnits="userSpaceOnUse" width="15"><rect fill="white" height="15" stroke="gray" width="15" x="0" y="0" /></pattern><pattern height="15" id="id6" patternUnits="userSpaceOnUse" width="15"><rect fill="white" height="15" stroke="gray" width="15" x="0" y="0" /></pattern><pattern height="15" id="id7" patternUnits="userSpaceOnUse" width="15"><rect fill="white" height="15" stroke="gray" width="15" x="0" y="0" /></pattern><pattern height="15" id="id8" patternUnits="userSpaceOnUse" width="15"><rect fill="white" height="15" stroke="gray" width="15" x="0" y="0" /></pattern><pattern height="15" id="id9" patternUnits="userSpaceOnUse" width="15"><rect fill="white" height="15" stroke="gray" width="15" x="0" y="0" /></pattern><pattern height="15" id="id10" patternUnits="userSpaceOnUse" width="15"><rect fill="white" height="15" stroke="gray" width="15" x="0" y="0" /></pattern><pattern height="15" id="id11" patternUnits="userSpaceOnUse" width="15"><rect fill="white" height="15" stroke="gray" width="15" x="0" y="0" /></pattern><pattern height="15" id="id12" patternUnits="userSpaceOnUse" width="15"><rect fill="white" height="15" stroke="gray" width="15" x="0" y="0" /></pattern><pattern height="15" id="id13" patternUnits="userSpaceOnUse" width="15"><rect fill="white" height="15" stroke="gray" width="15" x="0" y="0" /></pattern><pattern height="15" id="id14" patternUnits="userSpaceOnUse" width="15"><rect fill="white" height="15" stroke="gray" width="15" x="0" y="0" /></pattern><pattern height="15" id="id15" patternUnits="userSpaceOnUse" width="15"><rect fill="white" height="15" stroke="gray" width="15" x="0" y="0" /></pattern><pattern height="15" id="id16" patternUnits="userSpaceOnUse" width="15"><rect fill="white" height="15" stroke="gray" width="15" x="0" y="0" /></pattern><pattern height="15" id="id17" patternUnits="userSpaceOnUse" width="15"><rect fill="white" height="15" stroke="gray" width="15" x="0" y="0" /></pattern></defs><rect fill="black" height="600" stroke="black" stroke-width="2" width="600" x="0" y="0" /><g><rect fill="url(#id1) none" height="120" stroke="black" stroke-width="1" width="75" x="120" y="30" /></g><g><rect fill="url(#id2) none" height="105" stroke="black" stroke-width="1" width="165" x="120" y="225" /></g><g><rect fill="url(#id3) none" height="165" stroke="black" stroke-width="1" width="90" x="15" y="360" /></g><g><rect fill="url(#id4) none" height="180" stroke="black" stroke-width="1" width="75" x="225" y="390" /></g><g><rect fill="url(#id5) none" height="165" stroke="black" stroke-width="1" width="90" x="345" y="30" /></g><g><rect fill="url(#id6) none" height="150" stroke="black" stroke-width="1" width="60" x="495" y="15" /></g><g><rect fill="url(#id7) none" height="60" stroke="black" stroke-width="1" width="105" x="450" y="270" /></g><g><rect fill="url(#id8) none" height="120" stroke="black" stroke-width="1" width="150" x="330" y="390" /></g><g><rect fill="url(#id9) none" height="120" stroke="black" stroke-width="1" width="75" x="510" y="450" /></g><g><rect fill="url(#id10) none" height="15" width="240" x="150" y="90" /></g><g><rect fill="url(#id10) none" height="30" width="15" x="390" y="90" /></g><g><rect fill="url(#id11) none" height="15" width="60" x="150" y="90" /></g><g><rect fill="url(#id11) none" height="180" width="15" x="210" y="90" /></g><g><rect fill="url(#id12) none" height="15" width="165" x="60" y="450" /></g><g><rect fill="url(#id12) none" height="180" width="15" x="210" y="270" /></g><g><rect fill="url(#id13) none" height="15" width="210" x="60" y="450" /></g><g><rect fill="url(#id13) none" height="30" width="15" x="270" y="450" /></g><g><rect fill="url(#id14) none" height="15" width="30" x="390" y="450" /></g><g><rect fill="url(#id14) none" height="330" width="15" x="390" y="120" /></g><g><rect fill="url(#id15) none" height="15" width="135" x="390" y="300" /></g><g><rect fill="url(#id15) none" height="180" width="15" x="390" y="120" /></g><g><rect fill="url(#id16) none" height="15" width="150" x="390" y="120" /></g><g><rect fill="url(#id16) none" height="30" width="15" x="525" y="90" /></g><g><rect fill="url(#id17) none" height="15" width="150" x="405" y="510" /></g><g><rect fill="url(#id17) none" height="60" width="15" x="405" y="450" /></g><rect fill="blue" height="15" width="15" x="540" y="15" /><rect fill="red" height="15" width="15" x="15" y="375" /><text alignment-baseline="middle" fill="black" font-size="22.5" text-anchor="middle" x="157.5" y="90.0">1</text><text alignment-baseline="middle" fill="black" font-size="22.5" text-anchor="middle" x="202.5" y="277.5">2</text><text alignment-baseline="middle" fill="black" font-size="22.5" text-anchor="middle" x="60.0" y="442.5">3</text><text alignment-baseline="middle" fill="black" font-size="22.5" text-anchor="middle" x="262.5" y="480.0">4</text><text alignment-baseline="middle" fill="black" font-size="22.5" text-anchor="middle" x="390.0" y="112.5">5</text><text alignment-baseline="middle" fill="black" font-size="22.5" text-anchor="middle" x="525.0" y="90.0">6</text><text alignment-baseline="middle" fill="black" font-size="22.5" text-anchor="middle" x="502.5" y="300.0">7</text><text alignment-baseline="middle" fill="black" font-size="22.5" text-anchor="middle" x="405.0" y="450.0">8</text><text alignment-baseline="middle" fill="black" font-size="22.5" text-anchor="middle" x="547.5" y="510.0">9</text></svg>