<?xml version="1.0" encoding="utf-8" ?>
<svg baseProfile="full" height="100%" version="1.1" width="100%" xmlns="http://www.w3.org/2000/svg" xmlns:ev="http://www.w3.org/2001/xml-events" xmlns:xlink="http://www.w3.org/1999/xlink"><defs><pattern height="20" id="id1" patternUnits="userSpaceOnUse" width="20"><rect fill="white" height="20" stroke="black" width="20" x="0" y="0" /></pattern><pattern height="20" id="id2" patternUnits="userSpaceOnUse" width="20"><rect fill="white" height="20" stroke="black" width="20" x="0" y="0" /></pattern><pattern height="20" id="id3" patternUnits="userSpaceOnUse" width="20"><rect fill="white" height="20" stroke="black" width="20" x="0" y="0" /></pattern><pattern height="20" id="id4" patternUnits="userSpaceOnUse" width="20"><rect fill="white" height="20" stroke="black" width="20" x="0" y="0" /></pattern></defs><rect fill="black" height="800" stroke="black" stroke-width="2" width="800" x="0" y="0" /><g><rect fill="white" height="20.0" width="496.0" x="208" y="279" /></g><g><rect fill="white" height="53" width="20.0" x="684" y="226" /></g><g><rect fill="white" height="20.0" width="161" x="530" y="143" /></g><g><rect fill="white" height="319" width="20.0" x="530" y="143" /></g><g><rect fill="white" height="20.0" width="80.0" x="407" y="630" /></g><g><rect fill="white" height="256" width="20.0" x="467" y="374" /></g><rect fill="url(#id1) none" height="501" width="303" x="32" y="84" /><rect fill="url(#id2) none" height="275" width="160" x="598" y="1" /><rect fill="url(#id3) none" height="168" width="353" x="375" y="322" /><rect fill="url(#id4) none" height="173" width="389" x="377" y="536" /></svg>