<?xml version="1.0" encoding="utf-8" ?>
<svg baseProfile="full" height="800px" version="1.1" width="800px" xmlns="http://www.w3.org/2000/svg" xmlns:ev="http://www.w3.org/2001/xml-events" xmlns:xlink="http://www.w3.org/1999/xlink"><defs><pattern height="20" id="id20" patternUnits="userSpaceOnUse" width="20"><rect fill="white" height="20" stroke="black" width="20" x="0" y="0" /></pattern><pattern height="20" id="id21" patternUnits="userSpaceOnUse" width="20"><rect fill="white" height="20" stroke="black" width="20" x="0" y="0" /></pattern><pattern height="20" id="id22" patternUnits="userSpaceOnUse" width="20"><rect fill="white" height="20" stroke="black" width="20" x="0" y="0" /></pattern><pattern height="20" id="id23" patternUnits="userSpaceOnUse" width="20"><rect fill="white" height="20" stroke="black" width="20" x="0" y="0" /></pattern></defs><rect fill="black" height="800" stroke="black" stroke-width="2" width="800" x="0" y="0" /><g><rect fill="white" height="20.0" width="448" x="154" y="367" /></g><g><rect fill="white" height="288" width="20.0" x="602" y="367" /></g><g><rect fill="white" height="20.0" width="291" x="119" y="298" /></g><g><rect fill="white" height="37" width="20.0" x="410" y="298" /></g><g><rect fill="white" height="20.0" width="124" x="476" y="172" /></g><g><rect fill="white" height="130" width="20.0" x="476" y="172" /></g><rect fill="url(#id20) none" height="336" width="272" x="16" y="89" /><rect fill="url(#id21) none" height="416" width="218" x="334" y="9" /><rect fill="url(#id22) none" height="184" width="203" x="570" y="32" /><rect fill="url(#id23) none" height="269" width="180" x="509" y="455" /></svg>